<svg xmlns="http://www.w3.org/2000/svg" width="19" height="19" viewBox="0 0 5.027 5.027"><path d="M50.695 68.363c-.351-.028-.653-.123-.882-.276a1.013 1.013 0 0 1-.247-.255.77.77 0 0 1-.106-.486.985.985 0 0 1 .436-.688c.154-.1.278-.154.495-.213.214-.058.443-.098.643-.113.09-.007.127-.023.127-.056a.411.411 0 0 0-.043-.1c-.098-.18-.115-.296-.068-.451.022-.073.024-.088.012-.095a.876.876 0 0 0-.161-.009 1.08 1.08 0 0 1-1.046-.647c-.054-.133-.064-.197-.064-.395 0-.167.003-.19.027-.279.063-.226.194-.432.383-.601.18-.161.375-.255.636-.306.224-.044.266-.046 1.027-.046.856 0 .805-.01.594.114-.173.102-.222.117-.382.117-.068 0-.134.003-.146.006-.035.01-.026.038.023.078.11.09.227.276.283.45.046.141.058.23.052.408a.878.878 0 0 1-.104.437c-.057.117-.127.202-.288.351a1.222 1.222 0 0 0-.244.283.295.295 0 0 0-.027.118c-.008.14.044.213.307.431.299.248.438.406.511.579a1.02 1.02 0 0 1-.024.85c-.143.295-.431.542-.79.674a2.482 2.482 0 0 1-.934.12zm.712-.294c.303-.05.523-.186.624-.387a.669.669 0 0 0-.04-.656c-.09-.136-.203-.242-.427-.4-.176-.125-.152-.117-.368-.117-.268 0-.508.046-.722.137-.305.128-.475.375-.46.668.009.158.049.27.14.389.107.137.256.232.491.308.243.08.505.1.762.058zm-.07-2.64a.412.412 0 0 0 .279-.19c.072-.11.1-.194.114-.356.03-.323-.096-.791-.28-1.037a.736.736 0 0 0-.353-.26.67.67 0 0 0-.345 0c-.25.077-.408.342-.407.679 0 .311.108.63.302.888.1.133.247.235.396.275.071.019.215.019.293 0zm2.047-.169a.12.12 0 0 1-.045-.037c-.008-.014-.013-.115-.016-.334-.006-.345-.006-.345-.066-.374-.025-.012-.084-.014-.327-.014-.329 0-.339-.002-.368-.063a.542.542 0 0 1-.002-.256c.025-.058.03-.059.377-.064l.316-.005.032-.032.033-.032.004-.317c.006-.347.007-.352.065-.376a.586.586 0 0 1 .254 0c.058.024.06.03.065.376l.005.317.032.032.032.032.316.005c.348.005.353.006.377.064a.586.586 0 0 1 0 .254c-.024.058-.03.06-.377.065l-.316.005-.032.032-.032.032-.005.316c-.006.347-.007.352-.065.377a.549.549 0 0 1-.258-.003z" style="fill:#ae8370;fill-opacity:1;stroke-width:.0098219" transform="translate(-49.455 -63.342)"/></svg>