<svg width="64" height="38" viewBox="0 0 16.933 10.054" xmlns="http://www.w3.org/2000/svg"><path style="fill:#fff;stroke-width:.0529576" d="M-86.944 136.215c-.546-.288-.526-1.128.033-1.393.165-.078.899-.086 8.034-.086 8.657 0 8.059-.023 8.319.328.279.377.15.943-.263 1.153-.207.106-.294.107-8.067.105-7.719-.002-7.861-.004-8.056-.107zm.005-4.24c-.41-.237-.53-.775-.256-1.145.26-.351-.339-.328 8.318-.328 7.136 0 7.87.008 8.035.086.565.268.579 1.112.021 1.395-.207.106-.295.107-8.067.106l-7.858-.001zm0-4.233c-.41-.238-.53-.776-.256-1.146.26-.351-.339-.328 8.318-.328 7.136 0 7.87.008 8.035.086.565.268.579 1.112.021 1.396-.207.105-.295.106-8.067.105l-7.858-.001z" transform="translate(87.343 -126.268)"/></svg>