<svg xmlns="http://www.w3.org/2000/svg" width="1042" height="912" viewBox="0 0 275.696 241.3"><defs><filter id="a" x="-.012" width="1.024" y="-.795" height="2.59" color-interpolation-filters="sRGB"><feGaussianBlur stdDeviation=".797"/></filter></defs><g fill="#161616" fill-opacity=".431" paint-order="stroke fill markers"><rect width="156.938" height="2.405" x="16.974" y="230.697" rx="10.217" ry="2.405" transform="matrix(1.08799 0 0 .96273 -1.449 8.51)" opacity=".8" filter="url(#a)"/><rect ry="2.405" rx="10.217" y="230.697" x="93.28" height="2.405" width="156.938" transform="matrix(.64051 0 0 1 89.95 -.106)" opacity=".8" filter="url(#a)"/></g><rect width="176.932" height="230.921" x="25.073" y=".49" rx="6.655" ry="6.615" fill="#e3e4e5" paint-order="stroke fill markers"/><rect width="4.11" height="4.252" x="110.936" y="217.614" rx=".529" ry=".529" fill="none" stroke="#8c8c8c" stroke-width=".265" stroke-linecap="round" stroke-linejoin="bevel" paint-order="stroke fill markers"/><circle cx="113.227" cy="11.456" r="1.729" fill="#7c7b7b" paint-order="stroke fill markers"/><path fill="#4b4b4d" paint-order="stroke fill markers" d="M42.763 22.007h140.823v188.158H42.763z"/><path d="M93.021 22.01c30.188 42.056 59.657 86.986 90.564 126.162V22.007z" opacity=".632" fill="#515153"/><g><rect width="91.083" height="192.978" x="156.651" y="38.478" rx="11.434" ry="10.583" fill="#e7e8e9" paint-order="stroke fill markers"/><g paint-order="stroke fill markers"><ellipse cx="202.157" cy="216.934" rx="8.936" ry="8.472" fill="#e2e3e4"/><rect ry=".67" rx=".708" y="214.241" x="199.407" height="5.385" width="5.501" fill="none" stroke="#8c8c8c" stroke-width=".344" stroke-linecap="round" stroke-linejoin="bevel"/></g><ellipse cx="202.65" cy="45.743" rx="1.25" ry="1.238" fill="#7c7b7b" paint-order="stroke fill markers"/><rect width="15.875" height="2.528" x="194.721" y="52.847" rx="1.323" ry="1.22" fill="#7f7f80" paint-order="stroke fill markers"/><g opacity=".197"><path d="M196.052 52.855c-.733 0-1.323.545-1.323 1.22v.088c0 .38.19.714.483.937a1.15 1.15 0 01-.219-.673v-.087c0-.676.59-1.22 1.323-1.22h13.23c.32 0 .61.108.839.282a1.35 1.35 0 00-1.104-.547z" opacity=".411" paint-order="stroke fill markers"/></g><path fill="#4b4b4d" paint-order="stroke fill markers" d="M163.065 66.953h78.241v137.205h-78.241z"/><path d="M176.326 66.998l64.876 89.257V66.998z" fill="#515153"/></g></svg>