<svg xmlns="http://www.w3.org/2000/svg" width="7" height="11" viewBox="0 0 1.852 2.91"><path d="M56.369 55.277c-.37-.484-.675-1.04-.794-1.45-.095-.33-.1-.593-.019-.8a.932.932 0 0 1 .326-.419c.057-.04.177-.102.245-.124a.964.964 0 0 1 .596 0c.068.022.188.083.245.124a.932.932 0 0 1 .326.42c.082.206.076.47-.02.798-.105.368-.353.84-.677 1.294a3.679 3.679 0 0 1-.172.227.982.982 0 0 1-.056-.07zm.18-1.445a.496.496 0 0 0 .356-.337c.014-.043.015-.05.015-.138 0-.087 0-.095-.015-.137a.503.503 0 0 0-.96 0c-.014.042-.015.05-.015.137 0 .088.001.095.015.138a.5.5 0 0 0 .603.337z" style="fill:#2eb398;fill-opacity:1;stroke-width:.00529437" transform="translate(-55.5 -52.437)"/></svg>