<svg xmlns="http://www.w3.org/2000/svg" width="13" height="8" viewBox="0 0 3.44 2.117"><path d="M29.426 146.826c-.105-.057-.104-.047-.104-.828 0-.625.004-.716.027-.716.014 0 .378.177.807.392.757.38.783.392.886.392.103 0 .129-.012.886-.392.43-.215.793-.392.807-.392.023 0 .027.09.027.716 0 .785.001.773-.108.83-.073.037-3.158.036-3.228-.002zm.864-1.452a54.456 54.456 0 0 1-.781-.404c-.141-.078-.205-.149-.176-.196.018-.028.135-.03 1.7-.034 1.227-.003 1.687 0 1.705.015.013.01.024.03.024.043 0 .069-.114.138-.84.51-.703.36-.764.388-.864.395l-.109.007z" style="fill:#2eb398;fill-opacity:1;stroke-width:.0176424" transform="translate(-29.322 -144.739)"/></svg>