<svg width="30" height="24" viewBox="0 0 7.937 6.35" xmlns="http://www.w3.org/2000/svg"><path style="fill:#d4d4ce;fill-opacity:1;stroke-width:.0154203" d="M46.69 83.723a4.78 4.78 0 0 1-2.142-.698l.37-.003c.313 0 .399-.005.558-.034a3.395 3.395 0 0 0 1.282-.503c.198-.13.198-.13.013-.148-.404-.04-.833-.288-1.103-.64-.078-.1-.2-.32-.237-.426-.009-.024.007-.025.197-.017.188.009.414-.009.49-.037.014-.005-.02-.02-.084-.038a1.641 1.641 0 0 1-.719-.43 1.526 1.526 0 0 1-.4-.672c-.037-.126-.081-.432-.064-.448a.389.389 0 0 1 .119.041 1.7 1.7 0 0 0 .489.132l.109.008-.062-.05c-.617-.491-.811-1.273-.487-1.957l.064-.135.079.089a4.682 4.682 0 0 0 3.19 1.585c.102.009.106.008.097-.022a2.13 2.13 0 0 1-.022-.487c.07-.814.785-1.453 1.625-1.453.408 0 .781.142 1.109.423l.096.083.177-.046c.234-.06.449-.14.658-.244l.183-.091c.02-.009-.046.146-.114.27-.033.06-.092.15-.13.198-.085.109-.275.29-.366.348-.09.058-.06.062.149.02a3.77 3.77 0 0 0 .557-.157.457.457 0 0 1 .114-.034c.01.01-.122.181-.263.34a3.772 3.772 0 0 1-.485.44c-.037.023-.037.029-.046.317a4.523 4.523 0 0 1-.334 1.607c-.436 1.083-1.212 1.925-2.223 2.413a4.581 4.581 0 0 1-1.666.45 7.68 7.68 0 0 1-.779.006z" transform="translate(-44.548 -77.38)"/></svg>