<svg width="29" height="37" viewBox="0 0 7.673 9.79" xmlns="http://www.w3.org/2000/svg"><path style="fill:#e83a93;fill-opacity:1;stroke-width:.040279" d="M-7.793 139.096a.954.954 0 0 1-.253-.11c-.285-.232-.42-.447-.464-.745l-.026-.17h1c.994 0 .999 0 .999.089 0 .31-.295.76-.577.88a1.034 1.034 0 0 1-.679.056zm-3.333-1.648c-.423-.275-.26-.903.255-.978.207-.03.362-.13.445-.285.036-.068.053-.63.068-2.213l.02-2.123.106-.31c.21-.617.65-1.144 1.183-1.417.265-.136.662-.248.884-.249.113 0 .146-.017.146-.073 0-.122.145-.336.278-.409.258-.142.617.031.69.334.03.12.046.129.278.16.98.13 1.759.855 2.013 1.874.042.168.054.649.055 2.192 0 1.218.016 2.036.04 2.13.054.205.22.348.446.381.1.015.232.058.292.095a.53.53 0 0 1 .16.71c-.159.277.049.263-3.772.263-3.365 0-3.466-.002-3.587-.082z" transform="translate(11.368 -129.34)"/></svg>