<svg width="40" height="32" viewBox="0 0 10.583 8.467" xmlns="http://www.w3.org/2000/svg"><path style="fill:#e83a93;fill-opacity:1;stroke-width:.0410511" d="m-127.888 39.419-.137-.117-.011-3.96-.011-3.959.105-.119c.232-.261.613-.26.782.004.079.122.083.216.083 2.217 0 1.15.01 2.09.022 2.09.013 0 .453-.24.98-.534 1.145-.64 1.196-.666 1.336-.666.155 0 .24.047 1.378.767.56.355 1.048.651 1.084.66.036.007.957-.573 2.046-1.29 1.089-.719 2.04-1.33 2.114-1.36a.473.473 0 0 1 .521.112c.163.154.177.451.03.607-.121.126-4.346 2.899-4.53 2.971a.473.473 0 0 1-.253.028c-.063-.015-.622-.349-1.242-.741-.619-.392-1.15-.712-1.18-.711-.028.001-.555.285-1.169.631l-1.116.63-.012.968-.01.969h4.615c4.995 0 4.764-.01 4.925.208.079.106.086.346.016.493-.11.23.149.219-5.255.219h-4.973z" transform="translate(128.047 -31.069)"/></svg>