<svg xmlns="http://www.w3.org/2000/svg" width="15" height="32" viewBox="0 0 3.969 8.467"><path d="m-85.588 158.768-.004-1.932-.585-.005-.586-.004.004-.748.004-.749.585-.005.586-.005v-.663c0-.514.005-.703.023-.837.11-.82.542-1.356 1.237-1.534.255-.066.757-.073 1.32-.02l.202.019.004.674.004.674h-.407c-.224 0-.453.009-.51.017a.506.506 0 0 0-.428.34c-.034.096-.035.112-.04.714l-.005.617h.664c.365 0 .667.006.67.012.003.007-.033.34-.08.74l-.088.74c0 .008-.262.013-.582.013h-.582v3.871h-1.402z" style="fill:#2980b9;fill-opacity:1;stroke-width:.0157097" transform="translate(86.763 -152.23)"/></svg>