<svg xmlns="http://www.w3.org/2000/svg" width="32" height="26" viewBox="0 0 8.467 6.879"><path d="M34.236 102.596a5.091 5.091 0 0 1-1.595-.362 7.142 7.142 0 0 1-.685-.345l-.086-.053.302.006a3.4 3.4 0 0 0 1.192-.169c.198-.065.507-.201.656-.29.14-.082.39-.255.39-.268a.397.397 0 0 0-.129-.022c-.467-.037-.947-.319-1.24-.73a2.052 2.052 0 0 1-.217-.408l-.01-.04h.287c.184 0 .323-.009.387-.023l.099-.023-.133-.038c-.69-.2-1.206-.828-1.249-1.52l-.01-.163.065.028c.256.11.484.172.637.173h.074l-.05-.037a1.732 1.732 0 0 1-.704-1.255 1.906 1.906 0 0 1 .048-.584c.035-.131.165-.431.184-.423.006.003.064.065.128.137a4.968 4.968 0 0 0 3.455 1.66 2.403 2.403 0 0 1 .02-.815c.049-.172.08-.249.16-.4.529-.99 1.876-1.22 2.7-.46l.1.093.12-.027c.263-.058.626-.195.857-.321.066-.037.12-.058.12-.047 0 .047-.12.286-.207.416-.104.154-.346.395-.467.466a.266.266 0 0 0-.07.049c.01.01.342-.056.504-.1.091-.024.232-.07.313-.101a.898.898 0 0 1 .154-.051c.004.003-.044.072-.105.153a4.034 4.034 0 0 1-.6.615l-.153.122.01.12c.012.14-.016.553-.053.805-.18 1.228-.866 2.436-1.81 3.187-.728.58-1.534.908-2.509 1.022-.158.019-.74.034-.88.023z" style="fill:#00c4d0;fill-opacity:1;stroke-width:.0165896" transform="translate(-31.87 -95.72)"/></svg>