<svg xmlns="http://www.w3.org/2000/svg" width="29" height="19" viewBox="0 0 7.673 5.027"><path d="M-204.51 68.471v-2.513h7.673V70.985h-7.673zm6.603 2.008c0-.02-1.357-2.483-1.367-2.482-.006 0-.32.22-.699.489a24.2 24.2 0 0 1-.7.487c-.008 0-.323-.22-.701-.487-.379-.268-.692-.49-.698-.492a155.275 155.275 0 0 0-1.366 2.477c-.005.013.272.015 2.763.015 1.523 0 2.769-.003 2.768-.007zm-5.33-1.76.813-.93.024-.03-.809-.573c-.445-.316-.813-.576-.817-.577-.004-.002-.008.647-.008 1.504 0 .829.002 1.507.004 1.507s.359-.406.793-.902zm5.92-2.11c-.002-.001-.37.257-.817.574l-.814.577.025.028.815.932.79.903.002-1.505V66.61zm-2.007.85 1.34-.998-1.345-.002h-2.69l-1.344.002 1.342 1c.739.55 1.346 1 1.35.998.004-.001.61-.451 1.347-1z" style="fill:#fff;stroke-width:.00919682" transform="translate(204.51 -65.958)"/></svg>