<svg xmlns="http://www.w3.org/2000/svg" width="29" height="29" viewBox="0 0 7.673 7.673"><path d="M15.659 62.64a3.179 3.179 0 0 1-.392-.066c-.967-.23-2.027-.916-3.102-2.008a10.007 10.007 0 0 1-.62-.678c-.855-1.025-1.43-2.15-1.556-3.047l-.022-.162.036-.066c.135-.24.8-1.053 1.163-1.42.127-.127.24-.22.27-.22.033 0 .149.127.265.29.272.385.807 1.307.91 1.568.044.114.043.116-.37.465-.22.186-.36.324-.389.386-.019.04-.02.06-.009.12.02.104.075.281.137.436.395.992 1.196 1.93 2.001 2.342.282.144.562.23.795.245.21.014.202.018.529-.299.284-.275.417-.382.475-.382.041 0 .29.129.545.282.62.374 1.228.8 1.3.91.021.032.02.036-.014.085-.134.194-1.238 1.026-1.575 1.188-.073.035-.094.039-.209.037a2.62 2.62 0 0 1-.168-.007z" style="fill:#fff;stroke-width:.013462" transform="translate(-9.967 -54.973)"/></svg>