<svg xmlns="http://www.w3.org/2000/svg" width="19" height="25" viewBox="0 0 5.027 6.615"><path d="M23.5 59.265a.562.562 0 0 1-.293-.22 5.082 5.082 0 0 1-.161-.275 63.067 63.067 0 0 0-1.063-1.841 43.846 43.846 0 0 0-.337-.535c-.348-.548-.424-.683-.495-.887a1.226 1.226 0 0 1-.075-.494c0-.23.012-.324.068-.531.167-.627.627-1.194 1.236-1.52.271-.146.56-.24.878-.287.152-.022.508-.022.66 0a2.59 2.59 0 0 1 1.919 1.32 2.148 2.148 0 0 1 .265.947c.01.294-.032.502-.161.773-.065.136-.14.263-.435.723a43.687 43.687 0 0 0-1.334 2.235c-.1.177-.199.346-.22.376-.123.171-.29.251-.451.216zm.319-2.845a1.53 1.53 0 0 0 1.021-.61c.113-.158.178-.3.224-.488a1.57 1.57 0 0 0 .023-.485c-.087-.605-.56-1.082-1.203-1.21a1.223 1.223 0 0 0-.296-.021 1.22 1.22 0 0 0-.296.02c-.469.094-.845.365-1.052.758a1.274 1.274 0 0 0-.134.354c-.018.076-.02.116-.021.284 0 .182.001.2.026.3.072.284.195.493.411.696.227.213.496.347.799.397.13.021.375.024.498.005z" style="fill:#fff;stroke-width:.00913385" transform="translate(-21.076 -52.658)"/></svg>