<svg xmlns="http://www.w3.org/2000/svg" width="42" height="42" viewBox="0 0 11.113 11.113"><path d="M27.453 107.571c.34-.104.817-.784 1.265-1.801.089-.202.177-.433.195-.515.128-.565.562-1.002 1.168-1.175.127-.036.298-.075.38-.085l.15-.02.22-.317c.703-1.007 2.01-2.538 3.183-3.728 1.806-1.833 3.112-2.945 3.89-3.314.27-.129.402-.148.48-.07.069.068.071.135.013.33-.394 1.326-3.974 5.442-6.59 7.576l-.35.285-.006.401c-.015.81-.187 1.293-.61 1.717-.366.366-.925.584-1.704.663-.462.047-1.311.097-1.608.094l-.203-.002.127-.039z" style="fill:#ae8370;fill-opacity:1;stroke-width:.0271324" transform="translate(-27.326 -96.5)"/></svg>