<svg xmlns="http://www.w3.org/2000/svg" width="42" height="42" viewBox="0 0 11.113 11.112"><path d="M51.382 143.58a1.742 1.742 0 0 1-.637-.328 1.401 1.401 0 0 1-.396-1.446c.05-.156.054-.193.024-.222-.02-.02-.651-.567-1.403-1.215l-1.367-1.18-.152.08a1.393 1.393 0 0 1-2.006-.948 1.4 1.4 0 0 1 1.016-1.62 1.378 1.378 0 0 1 1.075.175l.182.11 3.024-1.442 3.024-1.442.001-.248c.001-.519.268-.961.726-1.206.796-.425 1.77.016 1.998.903.14.55-.103 1.16-.59 1.48a1.274 1.274 0 0 1-.752.217c-.39 0-.697-.124-.976-.394l-.122-.119-2.971 1.417-2.972 1.416.04.15c.054.205.032.617-.043.803l-.055.138 1.222 1.056 1.404 1.213.183.156.119-.069c.278-.16.703-.221 1.026-.146.526.12.956.6 1.035 1.155.093.645-.3 1.289-.915 1.503-.184.065-.56.09-.742.053zm.568-.735a.672.672 0 0 0 .405-.622.656.656 0 0 0-.358-.613c-.184-.102-.46-.11-.63-.02-.511.273-.52.973-.017 1.236a.703.703 0 0 0 .6.02zm-4.833-4.18c.217-.105.386-.384.386-.636 0-.203-.139-.448-.321-.57a.681.681 0 0 0-.837.077.607.607 0 0 0-.223.508c0 .214.058.352.21.499.212.203.517.25.785.121zm8.203-4.124c.527-.133.687-.825.275-1.188a.692.692 0 1 0-.275 1.188z" style="fill:#ae8370;fill-opacity:1;stroke-width:.027126" transform="translate(-45.418 -132.485)"/></svg>