<svg xml:space="preserve" width="40" height="30" xmlns="http://www.w3.org/2000/svg"><defs><clipPath clipPathUnits="userSpaceOnUse" id="a"><path d="M0 42h54V0H0Z"/></clipPath></defs><g clip-path="url(#a)" style="fill:#fff" transform="matrix(.74074 0 0 -.71429 0 30)"><g style="fill:#fff"><path d="M0 0c0-1.654-1.346-3-3-3h-44c-1.654 0-3 1.346-3 3v32c0 1.654 1.346 3 3 3h44c1.654 0 3-1.346 3-3zm-3 37h-44c-2.757 0-5-2.243-5-5V0c0-2.757 2.243-5 5-5h44c2.757 0 5 2.243 5 5v32c0 2.757-2.243 5-5 5" style="fill:#fff;fill-opacity:1;fill-rule:nonzero;stroke:none" transform="translate(52 5)"/></g><g style="fill:#fff"><path d="m0 0-18.973-16.386c-1.287-1.111-3.461-1.11-4.748 0L-42.693 0A1 1 0 1 1-44-1.514l18.973-16.385c1.014-.877 2.347-1.315 3.68-1.315 1.333 0 2.666.439 3.681 1.315L1.307-1.514A1 1 0 0 1 0 0" style="fill:#fff;fill-opacity:1;fill-rule:nonzero;stroke:none" transform="translate(48.347 37.757)"/></g></g></svg>