<svg xml:space="preserve" width="43" height="45" xmlns="http://www.w3.org/2000/svg"><defs><clipPath clipPathUnits="userSpaceOnUse" id="a"><path d="M0 54h52V0H0Z"/></clipPath></defs><g clip-path="url(#a)" style="fill:#fff" transform="matrix(.82692 0 0 -.83333 0 45)"><g style="fill:#fff"><path d="M0 0c7.309 0 13.255-5.906 13.255-13.166 0-1.951-.434-3.849-1.306-5.672C8.352-27.081 2.174-34.891.045-37.458c-2.154 2.562-8.423 10.379-12.032 18.653a12.928 12.928 0 0 0-1.27 5.639C-13.257-5.906-7.31 0 0 0m-.695-39.666c.19-.212.461-.334.746-.334.288-.016.561.124.751.34.344.391 8.478 9.704 12.966 19.991a14.958 14.958 0 0 1 1.487 6.503C15.255-4.803 8.412 2 0 2c-8.413 0-15.257-6.803-15.257-15.166 0-2.287.493-4.475 1.451-6.472C-9.304-29.959-1.045-39.274-.695-39.666" style="fill:#fff;fill-opacity:1;fill-rule:nonzero;stroke:none" transform="translate(25.95 52)"/></g><g style="fill:#fff"><path d="M0 0a5.243 5.243 0 0 0 5.237-5.237A5.243 5.243 0 0 0 0-10.474a5.243 5.243 0 0 0-5.237 5.237A5.243 5.243 0 0 0 0 0m0-12.474a7.245 7.245 0 0 1 7.237 7.237C7.237-1.247 3.991 2 0 2c-3.99 0-7.237-3.247-7.237-7.237 0-3.991 3.247-7.237 7.237-7.237" style="fill:#fff;fill-opacity:1;fill-rule:nonzero;stroke:none" transform="translate(25.948 44.24)"/></g><g style="fill:#fff"><path d="m0 0-6 23c-.08.307-.302.558-.596.676l-5 2-.743-1.857 4.531-1.812 5.316-20.38-10.029 5.015c-.271.136-.59.14-.866.014L-25.968.849l-12.581 5.807a1.003 1.003 0 0 1-.866-.014l-10.029-5.015 5.317 20.38 4.531 1.812-.743 1.857-5-2a1.003 1.003 0 0 1-.597-.676l-6-23a1.001 1.001 0 0 1 1.415-1.147l11.57 5.785 12.564-5.799c.266-.122.573-.122.838 0l12.564 5.799 11.57-5.785a.997.997 0 0 1 1.077.118A1 1 0 0 1 0 0" style="fill:#fff;fill-opacity:1;fill-rule:nonzero;stroke:none" transform="translate(51.968 1.252)"/></g></g></svg>