<svg xml:space="preserve" width="43" height="43" xmlns="http://www.w3.org/2000/svg"><defs><clipPath clipPathUnits="userSpaceOnUse" id="a"><path d="M0 26.881h26.882V0H0Z"/></clipPath></defs><g clip-path="url(#a)" style="fill:#fff" transform="matrix(1.5996 0 0 -1.59965 0 43)"><g style="fill:#fff"><path d="M0 0a.205.205 0 0 0-.061-.147l-.001-.002a.208.208 0 0 0-.148-.06h-2.114a.705.705 0 0 1-.697-.596 9.24 9.24 0 0 0-.485-1.549h-.001a9.135 9.135 0 0 0-.773-1.471.705.705 0 0 1 .093-.881l-.002-.001 1.496-1.496h.002a.215.215 0 0 0 .059-.148.223.223 0 0 0-.058-.149l-.001.001h-.002l-1.662-1.663a.208.208 0 0 0-.148-.06.209.209 0 0 0-.149.057l-.001.001.001.002-1.496 1.495a.703.703 0 0 1-.923.064 9.275 9.275 0 0 0-1.43-.746l-.036-.015a9.126 9.126 0 0 0-1.551-.478.704.704 0 0 1-.558-.688h-.002v-2.115a.214.214 0 0 0-.059-.148.219.219 0 0 0-.15-.061h-2.351a.213.213 0 0 0-.147.06v.001a.216.216 0 0 0-.061.148v2.115c0 .352-.26.645-.598.697a9.216 9.216 0 0 0-1.548.484 9.249 9.249 0 0 0-1.473.774.7.7 0 0 1-.878-.093l-.002.001-1.496-1.495-.014-.017a.23.23 0 0 0-.135-.043.21.21 0 0 0-.148.058v.002L-21.371-6.5a.214.214 0 0 0-.059.149c0 .055.02.108.059.148l1.496 1.496a.706.706 0 0 1 .064.924 9.266 9.266 0 0 0-.745 1.43 8.971 8.971 0 0 0-.493 1.585.704.704 0 0 1-.689.558v.001h-2.115a.214.214 0 0 0-.148.062.213.213 0 0 0-.061.147v2.352c0 .058.022.11.06.149l.001-.002a.21.21 0 0 0 .148.063h2.115c.353 0 .645.259.696.596.117.535.282 1.052.486 1.547l.013.034c.211.504.466.986.76 1.44a.704.704 0 0 1-.093.88l.001.001-1.496 1.496v.001l-.015.015a.205.205 0 0 0-.044.133c0 .055.02.109.059.149v-.001l1.663 1.662c.041.04.095.061.148.061a.204.204 0 0 0 .149-.059h.002l-.002-.002 1.496-1.495a.705.705 0 0 1 .926-.063c.45.288.927.538 1.425.744l.002.001v-.001c.508.21 1.039.377 1.586.495a.702.702 0 0 1 .558.686h.002v2.117c0 .057.024.109.061.146l.017.018a.207.207 0 0 0 .13.045h2.351a.212.212 0 0 0 .15-.063.205.205 0 0 0 .059-.146v-2.117c0-.352.26-.643.597-.695a9.185 9.185 0 0 0 3.022-1.258.704.704 0 0 1 .88.092l.001-.001 1.496 1.495a.21.21 0 0 0 .149.061.206.206 0 0 0 .148-.059v-.002l.037-.036 1.628-1.626a.22.22 0 0 0 .058-.148.21.21 0 0 0-.061-.149L-4.189 7.06a.706.706 0 0 1-.063-.925c.288-.45.538-.928.745-1.426l.001-.002-.001-.002a9.165 9.165 0 0 0 .494-1.584.705.705 0 0 1 .689-.559H-.21c.056 0 .11-.024.148-.063l.016-.015A.214.214 0 0 0 0 2.352Zm.979 3.446a1.606 1.606 0 0 1-1.189.525h-1.563c-.118.437-.265.863-.434 1.275l-.003-.001c-.172.417-.37.821-.593 1.209l1.107 1.105a1.617 1.617 0 0 1 0 2.287l-.003.003-1.623 1.625-.037.038-.002-.001v.001h-.001c-.315.315-.73.472-1.141.472-.414 0-.83-.157-1.145-.472l-1.106-1.106a10.635 10.635 0 0 1-2.482 1.029v1.564c0 .445-.183.85-.476 1.143a1.613 1.613 0 0 1-1.145.475h-2.351c-.419 0-.804-.164-1.093-.429l-.05-.046a1.609 1.609 0 0 1-.476-1.143v-1.564a10.56 10.56 0 0 1-2.482-1.03l-1.106 1.107-.001-.001a1.615 1.615 0 0 1-1.144.473c-.414 0-.829-.156-1.143-.472l-1.663-1.663.001-.001-.001-.002a1.606 1.606 0 0 1-.474-1.141 1.619 1.619 0 0 1 .474-1.146l1.106-1.106a10.364 10.364 0 0 1-.578-1.172l-.019-.036a11.035 11.035 0 0 1-.434-1.274h-1.562c-.446 0-.851-.181-1.143-.475l.001-.001-.001-.002a1.607 1.607 0 0 1-.477-1.141V0c0-.446.183-.85.477-1.144a1.609 1.609 0 0 1 1.143-.473h1.562c.119-.437.266-.863.434-1.276.173-.415.374-.817.597-1.208l-1.106-1.105a1.612 1.612 0 0 1-.474-1.145c0-.414.158-.83.474-1.145l1.663-1.662.001.001.001-.001a1.598 1.598 0 0 1 1.141-.472 1.608 1.608 0 0 1 1.145.472l1.106 1.105c.39-.224.793-.422 1.208-.593.412-.172.837-.317 1.274-.436v-1.563c0-.446.182-.85.476-1.144v.002l.002-.002a1.615 1.615 0 0 1 1.141-.475h2.351c.447 0 .853.182 1.145.475.293.294.476.698.476 1.144v1.563c.422.114.836.255 1.237.421l.036.014c.415.172.819.37 1.209.594l1.106-1.105v.001a1.62 1.62 0 0 1 2.289-.001l1.663 1.663-.001.001.001.002a1.615 1.615 0 0 1 0 2.286l-1.106 1.104c.223.391.421.794.595 1.209h-.002l.002.002c.171.413.316.839.434 1.274H-.21c.444 0 .848.18 1.141.473l.002.003c.294.293.476.698.476 1.141v2.352c0 .421-.163.806-.43 1.094" style="fill:#fff;fill-opacity:1;fill-rule:nonzero;stroke:none" transform="translate(25.473 12.264)"/></g><g style="fill:#fff"><path d="M0 0a4.203 4.203 0 0 0-2.982-1.235c-1.165 0-2.22.472-2.983 1.235a4.2 4.2 0 0 0-1.236 2.982c0 1.165.472 2.22 1.236 2.984a4.206 4.206 0 0 0 2.983 1.235A4.203 4.203 0 0 0 0 5.966a4.202 4.202 0 0 0 1.236-2.984A4.196 4.196 0 0 0 0 0m-2.982 8.611c-1.554 0-2.96-.63-3.98-1.649a5.614 5.614 0 0 1-1.647-3.98c0-1.553.63-2.961 1.647-3.979a5.617 5.617 0 0 1 3.98-1.649c1.553 0 2.961.631 3.979 1.649a5.612 5.612 0 0 1 1.648 3.979 5.61 5.61 0 0 1-1.648 3.98 5.608 5.608 0 0 1-3.979 1.649" style="fill:#fff;fill-opacity:1;fill-rule:nonzero;stroke:none" transform="translate(16.424 10.042)"/></g></g></svg>