<svg xml:space="preserve" width="37" height="43" xmlns="http://www.w3.org/2000/svg"><defs><clipPath clipPathUnits="userSpaceOnUse" id="a"><path d="M0 26.984h23.496V0H0Z"/></clipPath></defs><g clip-path="url(#a)" style="fill:#fff" transform="matrix(1.57476 0 0 -1.59354 0 43)"><g style="fill:#fff"><path d="M0 0a3.725 3.725 0 0 0 2.641 1.093A3.72 3.72 0 0 0 5.279 0a3.722 3.722 0 0 0 1.093-2.639 3.715 3.715 0 0 0-1.093-2.64 3.713 3.713 0 0 0-2.638-1.095A3.719 3.719 0 0 0 0-5.279a3.712 3.712 0 0 0-1.094 2.64C-1.094-1.609-.677-.677 0 0m13.408 8.447a3.72 3.72 0 0 0 2.64 1.093c1.03 0 1.965-.417 2.639-1.093a3.718 3.718 0 0 0 1.094-2.638 3.72 3.72 0 0 0-1.094-2.641 3.716 3.716 0 0 0-2.639-1.093 3.72 3.72 0 0 0-2.64 1.093 3.72 3.72 0 0 0-1.093 2.641c0 1.03.417 1.962 1.093 2.638m0-16.895a3.721 3.721 0 0 0 2.641 1.093 3.716 3.716 0 0 0 2.638-1.093 3.726 3.726 0 0 0 1.094-2.642c0-1.03-.418-1.962-1.094-2.639a3.72 3.72 0 0 0-2.638-1.092 3.724 3.724 0 0 0-2.641 1.092 3.722 3.722 0 0 0-1.093 2.639c0 1.032.417 1.965 1.093 2.642M-.926-6.206a5.033 5.033 0 0 1 3.567-1.478 5.03 5.03 0 0 1 3.88 1.824l4.947-3.115a5.015 5.015 0 0 1-.464-2.115 5.03 5.03 0 0 1 1.478-3.565 5.031 5.031 0 0 1 3.567-1.478c1.391 0 2.652.566 3.565 1.478a5.03 5.03 0 0 1 1.478 3.565 5.029 5.029 0 0 1-1.478 3.567 5.028 5.028 0 0 1-3.565 1.478 5.027 5.027 0 0 1-3.567-1.478 5.72 5.72 0 0 1-.318-.345L7.22-4.755c.298.645.463 1.359.463 2.116 0 .754-.165 1.469-.463 2.113l4.944 3.116A5.026 5.026 0 0 1 16.048.765a5.03 5.03 0 0 1 3.566 1.477 5.032 5.032 0 0 1 1.477 3.567 5.031 5.031 0 0 1-1.477 3.565 5.034 5.034 0 0 1-3.566 1.478 5.03 5.03 0 0 1-3.566-1.478 5.028 5.028 0 0 1-1.478-3.565c0-.756.166-1.471.464-2.115L6.521.577a5.015 5.015 0 0 1-3.88 1.826A5.032 5.032 0 0 1-.926.926a5.024 5.024 0 0 1-1.478-3.565c0-1.393.565-2.654 1.478-3.567" style="fill:#fff;fill-opacity:1;fill-rule:nonzero;stroke:none" transform="translate(2.404 16.133)"/></g></g></svg>