<svg width="64" height="56" viewBox="0 0 16.933 14.817" xmlns="http://www.w3.org/2000/svg"><path style="fill:#fff;stroke-width:.0530705" d="M-111.088 89.334c-.181-.09-.486-.358-.95-.835a774.91 774.91 0 0 0-3.349-3.38c-1.634-1.643-2.75-2.808-2.888-3.013a5.41 5.41 0 0 1-.702-1.521c-.165-.608-.165-1.779 0-2.387a4.851 4.851 0 0 1 3.434-3.427c.623-.168 1.747-.17 2.326-.004.828.237 1.496.663 2.165 1.381l.428.46.107-.133c.76-.944 1.533-1.476 2.516-1.73.55-.142 1.71-.13 2.284.026a4.851 4.851 0 0 1 3.434 3.427c.094.345.115.57.115 1.193 0 .625-.021.85-.115 1.194a5.335 5.335 0 0 1-.704 1.52c-.34.5-6.83 7.027-7.175 7.216-.334.181-.58.185-.926.013z" transform="translate(119.101 -74.643)"/></svg>