<svg width="62" height="55.999" viewBox="0 0 16.404 14.816" xmlns="http://www.w3.org/2000/svg"><path style="fill:#fff;stroke-width:.0529136" d="M-145.978 119.307c0-.082.17-.289.53-.647l.528-.528v-1.351h-2.598c-2.55 0-2.603-.002-2.798-.112a.968.968 0 0 1-.313-.313l-.112-.2.014-5.522.014-5.52.118-.166c.258-.362-.33-.337 8.053-.337 7.487 0 7.577 0 7.783.106a.73.73 0 0 1 .315.316c.105.205.107.3.107 5.644v5.436l-.113.234a.606.606 0 0 1-.331.333c-.203.092-.394.099-2.797.1h-2.58v1.352l.53.527c.36.359.529.566.529.648v.12h-6.879zm10.583-9.14v-4.498H-149.682V114.664H-135.395z" transform="translate(150.741 -104.61)"/></svg>