<svg width="71.999" height="51" viewBox="0 0 19.05 13.494" xmlns="http://www.w3.org/2000/svg"><path style="fill:#fff;stroke-width:.0526608" d="M-149.072 186.848c-.31-.109-.4-.295-.39-.793.02-.891.408-1.884.974-2.49.399-.428 1.056-.776 1.696-.897.453-.086 1.3-.405 2.197-.828l.565-.267v-1.249l-.18-.236a2.569 2.569 0 0 1-.425-1.008c-.058-.343-.081-.392-.186-.392-.055 0-.135-.053-.177-.118-.096-.148-.188-.699-.188-1.134 0-.271.02-.351.117-.448.064-.064.11-.165.103-.224-.071-.582-.092-1.127-.053-1.38.065-.412.312-.855.667-1.194.381-.364.675-.533 1.162-.668 1.177-.325 2.45.17 2.94 1.147.236.469.297.889.224 1.537-.078.686-.076.742.017.742.119 0 .15.225.116.803-.036.593-.147.9-.335.927-.094.014-.127.072-.177.317-.094.455-.249.831-.454 1.1l-.185.243.038.63.038.628.296.134c1.201.542 1.952.833 2.352.911a4.15 4.15 0 0 1 1.257.505c.814.516 1.388 1.627 1.479 2.864.027.368.018.423-.096.59a.707.707 0 0 1-.307.248c-.263.09-12.827.09-13.085 0zm13.859-.034c.353-.216.418-.474.308-1.21-.26-1.751-1.08-2.862-2.468-3.35a4.489 4.489 0 0 0-.571-.163l-.197-.032v-.578c0-.556-.006-.586-.155-.792-.155-.215-.336-.695-.4-1.061-.026-.146-.063-.2-.147-.211-.158-.023-.241-.233-.301-.765-.059-.517-.03-.733.104-.805.078-.042.086-.091.052-.33-.068-.48-.053-1.12.033-1.367.203-.582.76-1.119 1.415-1.36 1.107-.41 2.374.037 2.885 1.019l.168.321-.005.855c-.004.651.01.86.062.88.109.042.137.341.078.814-.064.515-.146.715-.302.738-.084.012-.12.065-.146.21-.064.367-.246.847-.4 1.062-.15.206-.155.235-.155.795v.581l.302.137c.905.41 1.726.725 2.177.837 1.134.282 1.8.848 2.177 1.848.154.412.286 1.034.286 1.354a.85.85 0 0 1-.09.363c-.181.31-.211.313-2.652.313h-2.226l.168-.103z" transform="translate(149.463 -173.423)"/></svg>