<svg xmlns="http://www.w3.org/2000/svg" width="16" height="15" viewBox="0 0 4.233 3.969"><path d="M58.186 50.942a3.556 3.556 0 0 1-.071-.006l-.04-.004.059-.033c.296-.164.48-.4.514-.658.012-.09-.005-.18-.04-.216a1.2 1.2 0 0 0-.107-.08 1.61 1.61 0 0 1-.274-.228 1.603 1.603 0 0 1-.225-.28 1.387 1.387 0 0 1-.181-1.083c.131-.53.596-.988 1.236-1.217a2.854 2.854 0 0 1 1.623-.08c.538.141.96.467 1.174.91.077.158.126.324.151.514.012.09.01.33-.003.424-.085.609-.48 1.087-1.093 1.32-.26.1-.57.154-.87.153-.115 0-.146-.004-.33-.04l-.139-.027-.034.042a1.55 1.55 0 0 1-.898.55c-.129.028-.346.047-.452.039z" style="fill:#e83a93;fill-opacity:1;stroke-width:.00636073" transform="translate(-57.78 -46.975)"/></svg>