<svg xmlns="http://www.w3.org/2000/svg" width="7" height="19" viewBox="0 0 1.852 5.027"><path d="M55.867 107.78c-.304-.086-.535-.268-.625-.494-.072-.18-.071-1.151 0-1.331.047-.117.3-.395.36-.395.014 0 .03.354.036.786.01.762.012.788.08.883.187.258.641.24.8-.03.049-.083.055-.185.055-.867 0-.424.012-.772.027-.772.061 0 .312.266.368.39.053.117.06.206.06.698 0 .52-.005.574-.067.69a1.01 1.01 0 0 1-.474.404 1.16 1.16 0 0 1-.62.039zm.096-1.396-.08-.07v-1.01c0-.66.011-1.028.033-1.063.083-.132.336-.116.405.027.024.05.032.378.026 1.07-.01 1.098-.004 1.063-.203 1.098-.081.013-.115.004-.18-.052zm.61-2.112c0-.67-.007-.8-.05-.877-.113-.203-.434-.287-.637-.167a.828.828 0 0 0-.173.138c-.062.072-.066.113-.075.866-.005.435-.021.79-.036.79a.75.75 0 0 1-.169-.134c-.226-.215-.247-.301-.235-.986.01-.578.011-.586.094-.706.326-.472 1.012-.557 1.46-.182.235.197.273.31.286.871.007.298-.002.544-.023.633a.9.9 0 0 1-.34.472l-.102.067z" style="fill:#fff;stroke-width:.0290337" transform="translate(-55.188 -102.78)"/></svg>