<svg xmlns="http://www.w3.org/2000/svg" width="9" height="18.997" viewBox="0 0 2.381 5.026"><path d="m77.884 146.18-.002-1.147-.351-.003-.352-.003.003-.445.002-.444.351-.003.352-.003v-.394c0-.305.003-.417.013-.497.066-.486.326-.805.743-.91.153-.04.454-.044.792-.013l.12.012.003.4.002.4h-.244a3.6 3.6 0 0 0-.306.01c-.129.021-.215.089-.256.202-.02.057-.021.066-.024.424l-.003.366h.398c.22 0 .4.003.402.007.002.004-.02.202-.048.44l-.053.44c0 .003-.157.006-.35.006h-.348v2.299h-.841Z" style="fill:#ae8370;fill-opacity:1;stroke-width:.0093766" transform="translate(-77.18 -142.298)"/></svg>