<svg xmlns="http://www.w3.org/2000/svg" width="19.002" height="17" viewBox="0 0 5.028 4.498"><path d="M-228.177 73.986a2.791 2.791 0 0 1-.947-.237 4.104 4.104 0 0 1-.406-.225l-.052-.035.18.004c.265.006.476-.027.707-.11.118-.042.302-.132.39-.19.083-.053.232-.166.232-.175 0-.004-.035-.01-.077-.014-.278-.025-.562-.209-.737-.477a1.394 1.394 0 0 1-.128-.268l-.006-.026h.17c.11 0 .192-.005.23-.015l.059-.015-.079-.025c-.41-.13-.716-.541-.742-.994l-.006-.106.039.018a.999.999 0 0 0 .378.113h.044l-.03-.024c-.244-.2-.389-.486-.417-.82-.01-.113.002-.27.028-.382.02-.086.098-.282.11-.276a1.1 1.1 0 0 1 .075.09 2.89 2.89 0 0 0 1.705 1.044c.116.021.34.048.346.04a1.708 1.708 0 0 1 .013-.533c.029-.112.047-.162.095-.262.314-.647 1.114-.797 1.603-.3l.06.06.071-.017c.156-.038.371-.127.508-.21.04-.024.072-.037.072-.03 0 .03-.071.187-.123.272a1.28 1.28 0 0 1-.319.336 1.961 1.961 0 0 0 .485-.131.5.5 0 0 1 .092-.033.698.698 0 0 1-.063.1 2.539 2.539 0 0 1-.356.402l-.09.08.005.078c.007.091-.009.362-.031.526-.107.803-.515 1.593-1.074 2.084-.433.38-.912.594-1.49.669a4.84 4.84 0 0 1-.523.014z" style="fill:#ae8370;fill-opacity:1;stroke-width:.0103365" transform="translate(229.582 -69.49)"/></svg>