<svg xmlns="http://www.w3.org/2000/svg" width="16" height="16" viewBox="0 0 4.233 4.233"><path d="M15.714 38.305a2.127 2.127 0 0 1-1.071-.383 2.415 2.415 0 0 1-.429-.402 2.123 2.123 0 0 1-.455-1.092 2.907 2.907 0 0 1-.003-.444 2.12 2.12 0 1 1 3.761 1.536 2.126 2.126 0 0 1-1.803.785zm.292-.397a1.725 1.725 0 0 0 1.376-.899c.213-.392.263-.87.137-1.3a1.723 1.723 0 0 0-3.36.722 1.726 1.726 0 0 0 1.847 1.477zm-.19-1.523a.207.207 0 0 1-.132-.113l-.014-.031-.002-.626c0-.424 0-.635.005-.654a.202.202 0 0 1 .112-.138.151.151 0 0 1 .08-.016c.04 0 .053.002.08.015.056.026.094.07.11.126.008.026.01.09.01.538v.509l.354.001.355.002.033.016c.043.02.08.057.1.1a.153.153 0 0 1 .015.08c0 .04-.002.052-.014.078a.214.214 0 0 1-.1.102l-.034.016h-.467c-.358.002-.472 0-.491-.005z" style="fill:#e83a93;fill-opacity:1;stroke-width:.0055172" transform="translate(-13.749 -34.077)"/></svg>