<svg width="61" height="61" viewBox="0 0 16.14 16.14" xmlns="http://www.w3.org/2000/svg"><path style="fill:#fff;stroke-width:.0529434" d="M82.35 191.194c-.77-.32-2.45-1.016-3.73-1.544-1.28-.528-2.391-1.003-2.467-1.056-.328-.225-.311.125-.311-6.409 0-5.56.006-5.963.092-6.133a.725.725 0 0 1 .575-.41c.182-.024.64.151 3.806 1.462l3.598 1.49 3.597-1.49c3.164-1.31 3.622-1.486 3.805-1.462a.725.725 0 0 1 .574.41c.086.17.092.572.092 6.13 0 6.476.014 6.189-.298 6.403-.083.057-1.152.517-2.374 1.022l-3.74 1.545c-.834.346-1.584.628-1.666.628-.083 0-.781-.264-1.553-.586zm.781-6.308-.013-4.989-2.857-1.182c-1.57-.65-2.862-1.183-2.87-1.183-.009 0-.01 2.245-.002 4.99l.014 4.989 2.83 1.177c1.558.648 2.85 1.18 2.872 1.182.022.002.034-2.24.026-4.984zm-3.23 2.392c-.81-.374-1.504-.707-1.544-.74-.117-.097-.24-.402-.24-.597 0-.385.418-.757.8-.71.237.028 3.099 1.326 3.262 1.479.303.283.27.795-.07 1.093-.159.14-.225.163-.462.16-.236-.005-.485-.102-1.747-.685zm.078-2.748c-.823-.376-1.546-.728-1.606-.782a.73.73 0 0 1 .414-1.276c.238-.022.362.024 1.738.648.815.37 1.546.734 1.626.809.494.465.158 1.284-.527 1.284-.08 0-.82-.308-1.645-.683zm1.472-2.122a52.634 52.634 0 0 1-1.561-.688c-.96-.434-1.476-.697-1.572-.8a.754.754 0 0 1 .097-1.093c.342-.261.493-.224 2.11.514.786.358 1.491.695 1.568.748.156.107.31.396.31.579 0 .195-.21.575-.362.653-.199.101-.436.136-.59.087zm6.117 6.284 2.852-1.182.027-4.941c.014-2.718.013-4.963-.003-4.989-.016-.025-1.314.486-2.884 1.136l-2.855 1.183-.013 4.987c-.008 2.744-.005 4.988.005 4.988s1.302-.532 2.87-1.182zm-1.855-.889c-.34-.298-.372-.811-.07-1.093.11-.102 2.44-1.196 3.015-1.415a.808.808 0 0 1 .435-.06c.558.105.8.826.413 1.234-.095.1-.649.381-1.628.825-1.699.77-1.832.802-2.165.51zm.152-2.666c-.476-.207-.578-.846-.193-1.208.08-.075.811-.439 1.626-.809 1.376-.624 1.5-.67 1.738-.648.653.062.893.843.397 1.29-.184.165-3.068 1.45-3.25 1.448a.99.99 0 0 1-.318-.073zm.132-2.729c-.254-.078-.413-.222-.502-.455-.117-.307-.067-.561.152-.775.171-.167 2.85-1.421 3.198-1.498.212-.046.605.118.726.304.193.295.15.755-.092.977-.136.126-2.959 1.417-3.19 1.46a.727.727 0 0 1-.292-.013z" transform="translate(-75.842 -175.64)"/></svg>