<svg width="64" height="44" viewBox="0 0 16.933 11.642" xmlns="http://www.w3.org/2000/svg"><path style="fill:#fff;stroke-width:.0529161" d="M316.396 181.191c-.414-.268-.387.124-.387-5.688 0-4.695.008-5.206.086-5.371.048-.1.116-.176.152-.167.08.019 5.073 4.86 5.095 4.94.008.03-1.131 1.42-2.532 3.086-1.4 1.667-2.535 3.042-2.523 3.055.013.012 1.375-1.16 3.026-2.604l3.002-2.628.326.31c.18.172.665.645 1.08 1.052l.754.74.754-.74c.415-.407.9-.88 1.08-1.051l.326-.31 3.002 2.627c1.651 1.445 3.013 2.616 3.026 2.604.013-.013-1.123-1.388-2.523-3.055-1.4-1.667-2.54-3.056-2.532-3.086.022-.08 5.015-4.921 5.095-4.94.036-.01.104.066.152.167.078.165.087.678.087 5.392v5.21l-.12.178c-.067.098-.201.233-.3.299l-.178.12h-15.732zm7.656-5.213c-.219-.176-2.046-1.607-4.062-3.18-2.015-1.574-3.664-2.88-3.664-2.904 0-.024.07-.08.156-.124.138-.071 1.072-.08 7.993-.08s7.855.009 7.993.08c.086.045.156.1.156.123 0 .037-8.067 6.37-8.145 6.394-.017.005-.209-.134-.427-.31z" transform="translate(-316.008 -169.69)"/></svg>