<svg width="32" height="32" viewBox="0 0 8.467 8.467" xmlns="http://www.w3.org/2000/svg"><path style="fill:#fff;stroke-width:.0165429" d="M62.743 128.508a4.225 4.225 0 0 1-3.134-1.881 4.198 4.198 0 0 1-.63-3.112 4.202 4.202 0 0 1 1.827-2.754c.898-.594 1.94-.816 3.029-.646 1.305.204 2.475 1.063 3.084 2.266a4.24 4.24 0 0 1 .001 3.82 4.25 4.25 0 0 1-1.871 1.871 4.255 4.255 0 0 1-2.306.436zm.91-.636c.356-.05.893-.213.893-.269a14.022 14.022 0 0 0-.612-2.297l-.152-.433-.104.039c-.509.191-1.295.633-1.68.943-.452.365-.811.774-1.002 1.14l-.077.149.047.039a3.9 3.9 0 0 0 .784.45c.566.243 1.265.33 1.903.239zm1.684-.705a3.684 3.684 0 0 0 1.374-2.303 8.487 8.487 0 0 0-.568-.132 4.993 4.993 0 0 0-.943-.077c-.307.001-.706.031-.73.054-.004.005.038.142.093.305.218.64.408 1.336.539 1.97.034.167.065.302.069.302.003 0 .078-.054.166-.12zm-4.685-.774a5.25 5.25 0 0 1 1.165-1.217c.142-.106.454-.305.696-.446.292-.171.573-.304.82-.388l.2-.07-.078-.168c-.17-.362-.215-.443-.245-.434l-.144.041c-.67.194-1.567.353-2.35.415-.328.026-.807.05-1.003.05-.149 0-.177.004-.186.028a3.643 3.643 0 0 0 .819 2.38l.103.125.033-.055c.018-.03.095-.147.17-.26zm6.101-2.27c-.045-.675-.202-1.19-.524-1.717-.083-.135-.276-.397-.293-.397a.772.772 0 0 0-.112.121c-.108.13-.355.363-.542.51a5.987 5.987 0 0 1-1.232.726c-.068.03-.126.055-.128.057-.003.002.05.122.116.267.067.145.139.306.16.359.028.071.045.093.065.087.167-.05 1.224-.051 1.681-.003.247.026.69.091.702.102a.166.166 0 0 0 .06.007h.055Zm-6.138-.617a13.447 13.447 0 0 0 2.313-.398 2.034 2.034 0 0 0-.151-.286c-.32-.55-.636-1.039-.99-1.536l-.192-.268-.14.074c-.54.288-.99.698-1.345 1.232a3.602 3.602 0 0 0-.505 1.197c-.009.031.002.032.35.021.198-.006.494-.022.66-.036zm3.226-.702a5.03 5.03 0 0 0 1.16-.68c.2-.163.53-.512.517-.547a3.61 3.61 0 0 0-.394-.308 3.423 3.423 0 0 0-1.481-.56 4.848 4.848 0 0 0-.933-.008c-.28.041-.415.073-.407.095.005.012.083.122.174.244.316.426.694 1.015.996 1.55.093.163.176.294.187.29l.181-.076z" transform="translate(-58.907 -120.06)"/></svg>