<svg width="32" height="28" viewBox="0 0 8.467 7.408" xmlns="http://www.w3.org/2000/svg"><path style="fill:#fff;stroke-width:.016583" d="M177.261 125.984c-.411-.114-.827-.518-1.027-.998-.081-.194-.25-.71-.568-1.745-.401-1.3-.531-1.705-.653-2.039-.157-.43-.206-.495-.372-.495-.154 0-.371.091-.629.265a1.952 1.952 0 0 1-.13.084c-.003 0-.08-.1-.173-.224l-.167-.223.16-.18c.624-.697 1.35-1.308 1.863-1.569.694-.353 1.102-.262 1.392.308.164.324.258.697.424 1.688.072.433.118.645.248 1.139.145.55.232.824.324 1.017.167.352.29.36.594.036.216-.23.492-.647.787-1.19.171-.315.225-.477.242-.72a.812.812 0 0 0-.08-.445c-.159-.314-.514-.384-.94-.184a1.051 1.051 0 0 1-.143.06 1.484 1.484 0 0 1 .07-.303c.178-.58.628-1.108 1.196-1.402.24-.123.428-.19.667-.236.242-.047.595-.039.79.018.205.06.373.157.515.298.203.204.309.437.347.768.054.467-.102 1.19-.414 1.924-.438 1.029-1.212 2.111-2.212 3.093-.742.729-1.363 1.197-1.674 1.261-.116.024-.34.02-.437-.006z" transform="translate(-173.542 -118.598)"/></svg>