<svg xmlns="http://www.w3.org/2000/svg" width="74.43" height="69.999" viewBox="0 0 19.693 18.521"><path d="M5.287 18.486c-.178-.052-.28-.193-.28-.386 0-.388.165-.453 1.149-.453h.752l.458-.438c.515-.492.763-.86.845-1.259l.053-.255h3.164l.027.201c.054.39.236.675.79 1.23l.52.521h.75c.421 0 .81.021.888.048.238.083.339.34.228.585-.111.244.124.232-4.722.24-2.677.004-4.537-.01-4.622-.034zm-4.29-3.788a1.488 1.488 0 01-.725-.575c-.295-.435-.28-.04-.267-6.793l.012-6.12.145-.296c.177-.36.49-.655.844-.798l.253-.102L9.543.002c4.557-.007 8.285.003 8.284.022 0 .019-.131.144-.29.278-.262.22-1.187 1.206-1.275 1.358-.03.052-1.137.062-7.153.062H1.992l-.145.129-.144.13-.013 4.805c-.007 2.643-.001 4.873.014 4.955.03.172.213.361.349.36.079 0 .408-.611 2.133-3.968 2.198-4.277 2.134-4.17 2.386-4.005.062.04.636 1.074 1.494 2.689A157.776 157.776 0 009.47 9.429c.006-.006.493-.949 1.083-2.096.59-1.147 1.104-2.12 1.142-2.162a.292.292 0 01.193-.078c.165 0 .269.144.633.874l.292.585-.076.138c-.053.094-.187.195-.42.317-.538.282-1.01.84-1.206 1.427a4.18 4.18 0 00-.12.666 3.404 3.404 0 01-.15.717c-.149.384-.17.531-.111.775.103.433.511.753.96.755.537.002 2.223-.73 2.723-1.181l.167-.15.109.189c.06.104.305.573.545 1.043l.436.854h1.014c1.12 0 1.182-.013 1.274-.275.033-.095.039-1.082.02-3.247l-.027-3.11.502-.665c.276-.366.668-.913.87-1.214l.37-.549-.012 5.295-.012 5.296-.117.243c-.172.362-.4.597-.738.764l-.297.146-8.629.01-8.629.01zm7.22-.912a.409.409 0 00.091-.526c-.269-.455-.955-.113-.752.375a.46.46 0 00.142.191c.135.079.392.059.518-.04zm1.85.045c.13-.07.23-.295.197-.445-.037-.166-.26-.352-.421-.352-.162 0-.385.186-.421.352-.032.145.064.37.188.443.101.059.349.06.457.002zm1.974-.063c.225-.226.092-.656-.22-.714a.423.423 0 00-.493.508c.067.302.493.425.713.206zm-6.414-3.95c.096-.05.212-.227.469-.715l.341-.649.308.593c.333.64.402.737.565.8.138.052.382-.027.47-.154.139-.198.087-.358-.468-1.433-.294-.57-.578-1.066-.631-1.103-.118-.083-.328-.085-.471-.006-.13.072-1.2 2.117-1.202 2.295-.001.193.23.425.434.435a.53.53 0 00.185-.063zm5.96.614c-.016-.04-.004-.135.027-.21.131-.325.187-.564.227-.979.032-.332.074-.509.172-.718.216-.462.691-.855 1.037-.858.093 0 .143-.036.2-.139a32.068 32.068 0 012.454-3.77c1.46-1.949 2.48-3.032 3.15-3.344.34-.158.5-.148.692.045.153.153.156.164.135.432-.026.316-.175.716-.463 1.241-.782 1.424-2.903 4.122-4.47 5.685l-.574.572.011.216c.028.528-.257.931-.888 1.257-.405.21-1.496.643-1.618.643-.035 0-.077-.033-.093-.073z" fill="#8b90a3"/></svg>