<svg xmlns="http://www.w3.org/2000/svg" width="71.429" height="70" viewBox="0 0 18.899 18.521"><path d="M5.193 18.499c-.162-.012-.223-.037-.314-.133l-.114-.118v-.538c0-.615.038-.764.25-1 .232-.257.462-.34.938-.341h.402v-1.296h-.608c-.519 0-.609.008-.609.06 0 .223-.365.85-.678 1.163-.853.853-2.227 1-3.232.345a2.62 2.62 0 01-1.136-2.72c.043-.202.048-.336.02-.55-.02-.154-.057-.953-.082-1.773-.058-1.942-.025-9.516.044-9.835A2.312 2.312 0 011.271.23c.5-.248.076-.236 8.177-.224 6.702.01 7.387.017 7.55.075.753.269 1.253.764 1.5 1.486l.087.255.01 3.67.01 3.672.147.29.147.291v7.664l-.113.244a1.516 1.516 0 01-1.037.83c-.15.032-1.913.042-6.282.037a750.22 750.22 0 01-6.274-.021zm10.45-.97a.312.312 0 00.096-.239c0-.193-.06-.29-.22-.356-.116-.049-.152-.049-.268 0-.158.066-.22.163-.22.349 0 .303.395.461.611.245zM3.153 16.4c.972-.247 1.66-1.337 1.457-2.309-.17-.816-.822-1.469-1.613-1.614-1.215-.224-2.375.736-2.375 1.967A2.023 2.023 0 003.153 16.4zm-.941-1.243c-.156-.095-.529-.505-.535-.588-.01-.134.011-.186.107-.272.127-.114.233-.111.392.01l.128.098.17-.074a1.47 1.47 0 00.366-.279c.235-.243.346-.296.495-.234.12.05.212.228.176.341-.037.118-1.022 1.07-1.106 1.07a.489.489 0 01-.193-.072zm16.113-1.37c-.002-1.377-.015-2.85-.03-3.275l-.025-.772-.121-.15a1.23 1.23 0 00-.295-.25l-.173-.098h-4.594l-.163.087c-.2.108-.38.32-.44.519-.032.106-.044 1.052-.044 3.296v3.146h5.89l-.004-2.503zM12.938 15.4c-.039-.038-.033-3.085.006-3.145.024-.039.269-.047 1.088-.04l1.058.011v3.18l-1.063.01c-.584.006-1.075 0-1.09-.016zm2.581-.024a5.406 5.406 0 01-.008-.6l.01-.548h2.317v1.178l-1.15.01c-.92.009-1.153 0-1.169-.04zm.031-1.946c-.038-.024-.048-.175-.04-.618l.012-.586 1.135-.01c.883-.008 1.143 0 1.168.039.052.083.04 1.107-.014 1.16-.055.056-2.176.069-2.261.015zm-2.615-2.032c-.047-.12-.027-1.097.023-1.147.028-.028.166-.047.345-.047.18 0 .317.019.346.047.05.05.07 1.027.023 1.147-.02.05-.09.063-.369.063-.278 0-.35-.012-.368-.063zm1.413 0c-.046-.12-.026-1.097.023-1.147.068-.067 3.372-.067 3.44 0 .05.05.069 1.027.023 1.147-.021.056-.212.063-1.743.063-1.531 0-1.722-.007-1.743-.063zm-4.667 2.451c.315-.29.246-.775-.135-.943-.4-.177-.797.08-.797.518 0 .477.585.744.932.425zm2.17-2.683v-.608H8.979l-.115-.115-.115-.115v-.79c0-.468.017-.823.04-.867.107-.2-.013-.194 4.051-.193 3.692 0 3.783.002 3.88.077.08.064.161.077.47.079.347.001.513.023.738.095l.09.029-.012-3.449c-.01-3.397-.012-3.45-.093-3.648a1.727 1.727 0 00-.948-.965l-.226-.091L9.456.593c-5.33-.008-7.346 0-7.518.033A1.627 1.627 0 00.685 1.76c-.056.191-.063.725-.063 5.114v4.9h11.229zm-9.904-.65c-.186-.11-.187-.114-.187-2.667 0-2.569 0-2.565.195-2.67.05-.026 1.022-.04 2.849-.04h2.773l.115.115.115.115v4.959l-.115.115-.115.115-2.78-.002c-1.816 0-2.805-.015-2.85-.04zm6.917-3.41l-.115-.115V5.369l.115-.115.115-.115h7.668l.114.115.115.115v1.622l-.115.115-.114.114H8.979zM1.952 3.824c-.177-.096-.197-.215-.184-1.058l.012-.774.11-.095.11-.095h2.269l.11.095.11.095.012.774c.014.85-.007.964-.192 1.06-.16.082-2.205.08-2.357-.002zm4.275-.002a.42.42 0 01-.147-.133c-.023-.045-.04-.401-.04-.866v-.791l.115-.115.115-.115h10.378l.114.115.115.115v.79c0 .468-.016.822-.04.867-.109.203.125.194-5.386.193-4.438-.002-5.13-.01-5.223-.06z" fill="#8b90a3"/></svg>