<svg xmlns="http://www.w3.org/2000/svg" width="93.821" height="70" viewBox="0 0 24.824 18.521"><path d="M.23 18.469c-.24-.14-.23.117-.23-6.568V5.663l.164-.165.165-.164h6.458v13.187l-3.236-.001c-2.108 0-3.266-.019-3.321-.05zm3.706-2.158a.995.995 0 00-.12-1.724c-.298-.152-.743-.113-.99.086-.374.3-.514.672-.405 1.076.173.641.978.94 1.515.562zm1.218-5.844a.501.501 0 00-.048-.918c-.065-.025-.839-.046-1.718-.046-1.293 0-1.63.014-1.768.071-.355.148-.386.65-.052.854.142.087.261.093 1.816.093 1.13 0 1.698-.017 1.77-.054zm-.048-1.834a.501.501 0 00.048-.918c-.072-.037-.64-.054-1.77-.054-1.555 0-1.674.006-1.816.093a.474.474 0 00-.191.607c.127.304.19.314 2 .316.891.001 1.663-.018 1.73-.044zm2.86 9.802a.593.593 0 01-.158-.22c-.073-.194-.072-17.706 0-17.913C7.92-.018 7.646 0 12.424 0c4.331 0 4.332 0 4.441.102.06.056.13.155.155.221.061.162.061 17.714 0 17.875a.713.713 0 01-.155.221l-.109.102-4.342-.001c-4.04 0-4.35-.007-4.449-.085zm4.954-2.553c.449-.188.751-.667.75-1.191 0-.388-.11-.648-.384-.913-.604-.587-1.644-.405-2.015.352-.149.304-.172.767-.052 1.052a1.312 1.312 0 001.7.7zm1.877-10.495c.13-.116.157-.176.157-.344 0-.17-.027-.228-.157-.345l-.157-.14h-4.452l-.145.122a.588.588 0 00-.177.265c-.039.176.084.453.232.524.07.034.866.053 2.324.055l2.218.003.157-.14zm-.101-2.166c.329-.17.343-.655.025-.849-.144-.088-.268-.093-2.3-.093-2.357 0-2.356 0-2.506.29-.092.178-.092.26 0 .439.148.287.135.285 2.486.287 1.858.002 2.168-.008 2.295-.074zm3.34 8.706V5.334h6.456l.165.164.165.165v6.238c0 6.717.01 6.436-.24 6.57-.061.033-1.2.05-3.32.05h-3.228zm3.805 4.467a1.02 1.02 0 00.584-1.054c-.037-.246-.178-.466-.428-.667-.248-.2-.693-.238-.992-.086-.784.4-.732 1.518.086 1.844.19.076.54.06.75-.037zm1.413-5.966c.334-.203.303-.706-.052-.854-.138-.057-.475-.07-1.768-.07-.88 0-1.653.02-1.718.045a.503.503 0 00-.057.916c.065.036.647.054 1.77.055 1.565 0 1.682-.005 1.825-.092zm-.052-1.82c.355-.148.386-.65.052-.854-.142-.087-.261-.093-1.815-.093-1.77 0-1.875.012-1.996.24-.07.13-.06.446.016.547.168.22.257.23 1.96.23 1.307 0 1.645-.013 1.783-.07z" fill="#8b90a3"/></svg>