<svg xmlns="http://www.w3.org/2000/svg" width="70" height="70" viewBox="0 0 18.521 18.521"><path d="M6.199 18.218v-.302h6.161v.604H6.199zm1.098-.784c0-.016.124-.445.274-.955l.273-.926h2.822l.355.945c.196.52.356.95.356.955 0 .005-.918.009-2.04.009-1.123 0-2.041-.013-2.04-.028zm-7.28-2.401c-.01-.026-.014-.49-.008-1.03l.01-.982h18.483v2.04l-9.233.01c-7.43.008-9.237 0-9.252-.038zm3.914-.33c.069-.069.076-.126.076-.626 0-.533-.003-.552-.093-.642l-.093-.093H.639l-.092.093c-.09.09-.093.111-.093.607 0 .495.026.64.128.707.023.016.769.028 1.658.029 1.566 0 1.618-.002 1.691-.075zM.945 14.06v-.265l1.295.01 1.294.01.011.255.012.255H.945zm12.522.667a.827.827 0 00.242-.187c.311-.354.13-.923-.333-1.048-.499-.134-.957.368-.774.848.138.36.52.532.865.387zm-.39-.48c-.08-.08-.073-.213.016-.271.083-.055.247-.03.286.044.056.104.05.143-.036.23-.096.095-.17.095-.267-.003zm2.182.491a.671.671 0 00.366-.89c-.3-.633-1.233-.41-1.233.295 0 .431.462.748.867.595zm-.338-.454c-.08-.047-.088-.234-.012-.297.172-.143.417.096.268.261-.076.084-.155.095-.256.036zm2.228.415c.405-.196.474-.773.128-1.065a.63.63 0 00-.85.012c-.169.149-.225.296-.204.54.02.251.137.425.348.52.203.093.377.09.578-.007zm-.42-.434c-.071-.07-.078-.21-.015-.273.025-.025.09-.045.144-.045.184 0 .257.191.12.315-.087.079-.173.08-.25.003zM0 8.334V4.119h3.629v3.683c0 4.006-.013 3.77.2 3.821.046.011 2.555.016 5.576.01 5.388-.01 5.495-.012 5.547-.084.046-.062.054-.635.054-3.752V4.119h3.515v8.429H.001zm4.082-1.38V2.759h10.47v8.391H4.082zm9.72 3.453c.066-.06.07-.17.07-1.957 0-1.654-.007-1.905-.059-1.979l-.059-.084h-2.372c-1.988 0-2.383.009-2.445.054-.07.052-.074.122-.084 1.9-.006 1.014-.002 1.882.01 1.927.051.21-.062.201 2.505.201 2.148 0 2.372-.005 2.435-.062zm-4.239-.411c0-.02 1.038-1.514 1.097-1.58.015-.017.229.255.474.605l.575.815.129.18H10.7c-.625 0-1.137-.01-1.137-.02zm2.631-.25l-.185-.268.147-.302c.08-.165.162-.31.18-.321.048-.03 1.082 1.016 1.082 1.094 0 .06-.048.067-.52.066l-.52-.001-.184-.268zM9.336 8.173V6.841h4.082v2.397l-.522-.518c-.35-.346-.55-.518-.605-.518-.121 0-.212.11-.404.493l-.173.344-.067-.088a36.451 36.451 0 01-.41-.58 6.664 6.664 0 00-.424-.564c-.155-.14-.244-.059-.787.716l-.596.85-.094.132zM7.878 9.956c.088-.088.075-.265-.024-.335-.072-.05-.27-.059-1.399-.059-1.264 0-1.317.003-1.39.076-.092.092-.097.216-.013.309.058.064.153.069 1.415.069 1.179 0 1.36-.008 1.411-.06zm0-1.133c.088-.089.075-.266-.024-.336-.072-.05-.27-.059-1.399-.059-1.264 0-1.317.003-1.39.076-.092.092-.097.216-.013.309.058.064.153.069 1.415.069 1.179 0 1.36-.008 1.411-.06zm0-1.134c.088-.089.075-.266-.024-.336-.072-.05-.27-.059-1.399-.059-1.264 0-1.317.003-1.39.076-.092.092-.097.216-.013.309.058.064.153.069 1.415.069 1.179 0 1.36-.008 1.411-.06zm-.874-1.803c.08-.059.896-2.086.896-2.226a.214.214 0 00-.35-.174c-.07.055-.897 2.106-.897 2.228 0 .178.207.28.351.172zm-.826-.074a.336.336 0 00.059-.157c0-.043-.19-.265-.458-.536l-.457-.463.424-.41c.233-.225.44-.45.457-.497a.233.233 0 00-.211-.31c-.105 0-1.23 1.125-1.23 1.23 0 .051.202.287.558.654.492.507.572.575.678.574.082 0 .14-.029.18-.085zm3.128-.475c.466-.465.56-.577.56-.67 0-.092-.094-.204-.56-.669-.582-.583-.66-.63-.808-.496-.147.133-.093.233.373.7l.443.444-.462.47c-.257.263-.46.502-.46.541 0 .13.108.239.236.239.104 0 .195-.075.678-.559zm4.264.068c.09-.091.095-.181.016-.294l-.058-.084h-1.356c-1.49 0-1.475-.003-1.475.227 0 .221.031.226 1.483.226 1.264 0 1.317-.003 1.39-.075zm0-1.134c.091-.092.097-.216.013-.31-.059-.064-.153-.068-1.415-.068-1.485 0-1.471-.003-1.471.227 0 .222.03.226 1.482.226 1.265 0 1.318-.003 1.39-.075zM4.082 1.152V0h10.47v2.305H4.082zm1.714.572c.3-.164.415-.573.251-.894a.76.76 0 00-.485-.358c-.377-.078-.801.278-.798.67.001.27.248.604.484.656.055.012.118.027.138.033.074.022.267-.028.41-.107zm-.53-.463c-.057-.088-.058-.109-.008-.198.108-.194.412-.128.412.09 0 .21-.286.288-.403.108zm2.324.486c.41-.188.472-.846.106-1.122-.29-.22-.647-.2-.896.05-.243.243-.282.57-.1.838.213.312.535.396.89.234zm-.51-.486c-.057-.088-.058-.109-.008-.198.046-.081.083-.1.205-.1.128 0 .154.015.185.103a.252.252 0 01-.008.198c-.063.139-.282.137-.373-.003zm2.337.492c.42-.21.477-.814.108-1.124-.502-.423-1.249.05-1.088.69.104.414.59.63.98.434zm-.489-.438c-.025-.025-.045-.098-.045-.163 0-.149.06-.208.21-.208.14 0 .215.074.215.208 0 .052-.021.12-.047.151-.057.068-.27.076-.333.012zm4.805.493a.364.364 0 00.11-.085c.015-.023.028-.283.028-.577.001-.76.153-.693-1.582-.692-1.04 0-1.408.012-1.479.048-.094.047-.094.051-.105.633-.01.558-.007.587.07.65.074.06.204.067 1.478.067.98 0 1.422-.013 1.48-.044zm-2.582-.637V.944h2.267v.454h-2.267z" fill="#8b90a3"/></svg>