<svg xmlns="http://www.w3.org/2000/svg" width="22" height="22" viewBox="0 0 5.821 5.821"><path d="M42.138 99.103c-.062-.019-.127-.081-.973-.926a45.15 45.15 0 0 0-.92-.905.62.62 0 0 0-.104.059 2.183 2.183 0 0 1-3.296-2.295c.206-1 1.11-1.734 2.136-1.734 1.199 0 2.184.984 2.184 2.183 0 .4-.126.833-.338 1.16a.618.618 0 0 0-.059.104c0 .007.407.42.905.92.878.878.907.908.927.978a.338.338 0 0 1-.09.366.344.344 0 0 1-.372.09zm-2.81-2.207c.147-.038.337-.123.462-.207a1.86 1.86 0 0 0 .383-.38c.501-.724.255-1.714-.525-2.117a1.457 1.457 0 0 0-2.045.825 1.46 1.46 0 0 0 1.135 1.905c.16.028.43.016.59-.026z" style="fill:#ae8370;fill-opacity:1;stroke-width:.0132355" transform="translate(-36.798 -93.302)"/></svg>