<svg xmlns="http://www.w3.org/2000/svg" width="33" height="25" viewBox="0 0 8.731 6.615"><path d="M1.647 4.966A204.97 204.97 0 0 1 0 3.306c0-.004.741-.75 1.647-1.657L3.294 0l.47.474.47.475-1.176 1.176c-.646.646-1.175 1.178-1.175 1.182 0 .003.529.536 1.175 1.183l1.175 1.176-.47.474-.47.475ZM7.084 4.966a204.97 204.97 0 0 0 1.647-1.66c0-.004-.74-.75-1.647-1.657L5.438 0l-.47.474-.47.475 1.175 1.176c.646.646 1.175 1.178 1.175 1.182 0 .003-.529.536-1.175 1.183L4.498 5.666l.47.474.47.475z" style="fill:#fff;stroke-width:.00882803"/></svg>