<svg xml:space="preserve" width="37" height="36" xmlns="http://www.w3.org/2000/svg"><defs><clipPath clipPathUnits="userSpaceOnUse" id="a"><path d="M0 26.88h26.881V0H0Z"/></clipPath></defs><g clip-path="url(#a)" style="fill:#fff" transform="matrix(1.37649 0 0 -1.3393 0 36)"><g style="fill:#fff"><path d="m0 0-.148.124a.456.456 0 0 1-.039.03l-.84.701 1.253.46 1.251.459L1.249.461 1.021-.854l-.95.791c-.009.008-.017.017-.029.026h.003zm6.341-17.042h-23.926l4.365 13.369 4.343-7.057a.673.673 0 0 1 1.128-.036l7.456 9.257 1.31-1.092a.675.675 0 0 1 1.134.372L2.577.232l.427 2.459a.674.674 0 0 1-.896.752L-.239 2.58l-2.346-.86v-.002A.67.67 0 0 1-2.782.569l1.456-1.214-6.901-8.567-4.607 7.483a.667.667 0 0 1-.365.29.676.676 0 0 1-.85-.433l-3.791-11.61v20.62H6.341Zm.675 25.529h-25.531a.673.673 0 0 1-.674-.673v-25.533c0-.371.302-.674.674-.674H7.016c.374 0 .675.303.675.674V7.814a.673.673 0 0 1-.675.673" style="fill:#fff;fill-opacity:1;fill-rule:nonzero;stroke:none" transform="translate(19.19 18.393)"/></g></g></svg>