<svg width="511.719" height="357.678" viewBox="0 0 135.392 94.636" xmlns="http://www.w3.org/2000/svg"><path style="fill:#fff;stroke-width:.264583" d="M86.51 172.252c-1.368-.441-3.376-2.406-3.925-3.84-.573-1.498-.585-3.793-.028-5.106.56-1.316 1.938-2.815 3.221-3.502l1.083-.58h32.412c30.656 0 32.463.026 33.366.476 1.382.688 2.608 1.98 3.316 3.493 1.435 3.068.225 6.773-2.79 8.546l-1.216.714-32.28.042c-22.363.028-32.549-.046-33.159-.243zM26.064 131.73c-5.069-1.37-6.62-8.057-2.671-11.524 2.152-1.89-3.98-1.728 65.453-1.728s63.3-.161 65.453 1.728c1.575 1.384 2.136 2.7 2.136 5.02 0 2.319-.56 3.635-2.136 5.018-2.15 1.889 3.904 1.723-64.924 1.778-50.017.04-62.29-.017-63.311-.292zM59.08 90.736c-2.408-1.129-3.832-3.111-4.046-5.634-.233-2.744 1.219-5.315 3.7-6.552l1.376-.685h91.338l1.375.685c5.02 2.502 4.911 9.664-.184 12.201-.906.451-3.284.479-46.595.54l-45.641.065z" transform="translate(-21.165 -77.865)"/></svg>