<svg xmlns="http://www.w3.org/2000/svg" width="50.007" height="50" viewBox="0 0 13.231 13.229"><path d="M1.432 13.189a2.175 2.175 0 01-.668-.291c-.378-.26-.67-.73-.74-1.192-.022-.142-.028-1.53-.022-5.208.008-4.733.01-5.023.055-5.17A1.884 1.884 0 011.333.055c.14-.042.47-.045 5.165-.053 3.678-.006 5.066 0 5.208.022A1.805 1.805 0 0113.19 1.45c.037.178.041.732.041 5.164 0 4.432-.004 4.986-.041 5.164a1.798 1.798 0 01-1.412 1.412c-.178.036-.728.04-5.182.039-4.273-.002-5.01-.008-5.164-.04zm9.165-4.268c.328-.204.154-.545-.745-1.457-.478-.485-.497-.52-.394-.723.032-.063.229-.347.438-.631.518-.705.613-.846.728-1.086.135-.283.15-.395.066-.493l-.065-.075-.852-.008-.852-.007-.077.065c-.05.041-.108.14-.162.278a5.63 5.63 0 01-.749 1.322c-.31.39-.406.46-.502.365-.087-.087-.102-.244-.104-1.11-.002-.794-.006-.859-.051-.926-.07-.103-.165-.144-.406-.177-.253-.034-1.264-.015-1.392.026-.115.037-.26.178-.26.253 0 .046.022.065.097.085.165.045.265.124.321.25.047.107.053.178.057.679.005.72-.047.96-.206.96-.104 0-.208-.092-.396-.347a6.1 6.1 0 01-.726-1.269c-.196-.467-.18-.46-1.08-.463l-.707-.002-.05.06a.251.251 0 00-.05.136c0 .076.206.54.502 1.13.474.945 1.075 1.847 1.528 2.292.646.634 1.336.917 2.236.918.258 0 .314-.008.414-.058.134-.068.147-.1.23-.562.058-.315.103-.41.217-.451.12-.043.24.045.672.491.443.456.561.54.824.58.075.012.422.02.77.017.606-.004.637-.007.726-.062z" fill="#fff"/></svg>