<svg width="15" height="31.998" viewBox="0 0 3.969 8.466" xmlns="http://www.w3.org/2000/svg"><path style="fill:#fff;stroke-width:.0192971" d="M-40.113 109.635c-.101-.048-.096.041-.096-1.89v-1.775l-.5-.007a4.71 4.71 0 0 1-.53-.024c-.07-.038-.076-.086-.082-.748-.006-.704.001-.836.05-.906.033-.047.038-.047.546-.054l.512-.006.009-.677c.007-.592.013-.7.045-.857.157-.76.56-1.24 1.204-1.441.17-.054.19-.055.84-.063.643-.008.668-.007.71.033l.044.041.006.691c.003.38 0 .712-.005.737-.023.107-.067.117-.583.129-.552.013-.585.022-.667.19-.044.09-.045.098-.05.644l-.007.553.595.006c.59.006.594.006.635.053l.04.047v.776c0 .717-.002.778-.032.813-.029.033-.084.037-.633.043l-.602.006v3.58l-.043.058-.043.058-.663.004c-.364.002-.679-.004-.7-.014z" transform="translate(41.323 -101.183)"/></svg>