<svg width="50" height="31" viewBox="0 0 13.229 8.202" xmlns="http://www.w3.org/2000/svg"><path style="fill:#e83a93;fill-opacity:1;stroke-width:.0420939" d="M-119.207 87.15a3.183 3.183 0 0 1-1.757-.81c-.365-.335-.6-.68-.764-1.12-.103-.28-.118-.384-.118-.84 0-.478.01-.546.136-.869.19-.484.38-.756.776-1.113.266-.24.43-.346.748-.49.224-.1.43-.183.46-.183.028 0 .107-.115.175-.256.428-.884 1.414-1.756 2.423-2.143a5.414 5.414 0 0 1 3.342-.152c1.201.346 2.252 1.172 2.832 2.227.156.283.174.3.422.394.64.241 1.241.729 1.548 1.255.244.418.334.714.36 1.19.032.547-.05.9-.323 1.399-.173.314-.273.437-.59.72-.303.273-.456.375-.757.507-.74.325-.438.305-4.77.314-2.222.005-3.98-.008-4.143-.03zm8.12-1.182c.817-.298 1.28-.931 1.226-1.68-.031-.438-.164-.717-.486-1.028-.312-.3-.67-.475-1.097-.535-.157-.022-.298-.054-.314-.07a1.562 1.562 0 0 1-.106-.29c-.298-1-1.274-1.863-2.447-2.165-.46-.118-1.35-.127-1.795-.018-.91.222-1.715.78-2.2 1.526-.128.196-.373.784-.373.894 0 .06-.043.082-.21.102-.755.094-1.271.42-1.569.994-.496.955.174 2.129 1.335 2.337.11.02 1.907.033 3.993.03l3.793-.007z" transform="translate(121.846 -78.98)"/></svg>