<svg width="49" height="34" viewBox="0 0 12.965 8.996" xmlns="http://www.w3.org/2000/svg"><path style="fill:#e83a93;fill-opacity:1;stroke-width:.0424295" d="M-126.71 90.761a.557.557 0 0 1-.352-.492c0-.203 3.262-8.156 3.402-8.294.408-.402 1.179-.007 1.016.52-.038.122-.997 2.467-1.995 4.878-.167.404-.521 1.263-.786 1.91-.265.645-.514 1.22-.553 1.275a.62.62 0 0 1-.732.203zm-1.966-1.77c-.095-.065-.721-.63-1.392-1.257-1.305-1.219-1.324-1.242-1.25-1.573.047-.203 2.618-2.581 2.856-2.64.46-.115.889.285.743.695-.033.092-.383.444-1.085 1.094-.57.528-1.036.978-1.036 1.001 0 .023.466.473 1.037 1 1.16 1.074 1.195 1.121 1.06 1.447-.145.354-.593.465-.933.233zm6.961.037c-.256-.145-.355-.483-.214-.728.035-.061.52-.533 1.08-1.05l1.016-.938-1.054-.98c-.692-.643-1.066-1.02-1.086-1.096a.585.585 0 0 1 .418-.721c.325-.084.37-.051 1.822 1.296l1.356 1.258v.195a.758.758 0 0 1-.049.284c-.069.127-2.55 2.43-2.693 2.501a.705.705 0 0 1-.596-.021z" transform="translate(131.342 -81.81)"/></svg>