<svg width="32" height="45" viewBox="0 0 8.467 11.906" xmlns="http://www.w3.org/2000/svg"><path style="fill:#e83a93;fill-opacity:1;stroke-width:.0420127" d="M-106.99 61.742c-1.387-1.74-2.472-3.395-3.102-4.736-.488-1.039-.652-1.682-.606-2.376.188-2.79 2.712-4.725 5.27-4.039 1.464.393 2.617 1.574 3.036 3.11.128.47.185 1.108.136 1.54-.128 1.136-1.086 2.982-2.704 5.21-.513.707-1.46 1.908-1.503 1.908-.02 0-.256-.278-.527-.617zm1.095-3.897c.18-.038.48-.151.7-.264.32-.162.444-.257.722-.55.278-.293.368-.425.522-.762.344-.751.403-1.534.171-2.265-.161-.509-.322-.777-.713-1.188-.612-.644-1.225-.889-2.123-.85-.383.017-.535.043-.77.136-.86.336-1.437.944-1.754 1.848-.148.422-.184 1.16-.08 1.65.188.897.862 1.737 1.67 2.084a2.686 2.686 0 0 0 1.655.161z" transform="translate(110.705 -50.453)"/></svg>