<svg xmlns="http://www.w3.org/2000/svg" width="70" height="70.061" viewBox="0 0 18.521 18.537"><path d="M57.435 84.99c-.276-.121-.43-.435-.372-.759.025-.138.485-.612 4.17-4.299l4.14-4.144-4.1-4.102c-2.316-2.317-4.12-4.153-4.144-4.218a.649.649 0 0 1 .051-.57c.194-.287.5-.396.802-.284.066.025 1.902 1.828 4.219 4.144l4.102 4.1 4.144-4.14c4.505-4.503 4.217-4.242 4.607-4.169.203.039.45.286.489.49.073.39.334.1-4.168 4.606l-4.14 4.144 4.14 4.143c4.502 4.505 4.24 4.217 4.168 4.607-.038.203-.286.45-.49.489-.389.073-.1.334-4.606-4.168l-4.144-4.141-4.123 4.121c-2.329 2.328-4.173 4.14-4.239 4.164a.707.707 0 0 1-.506-.015z" style="fill:#2d3141;stroke-width:.0413337" transform="translate(-57.051 -66.52)"/></svg>