<svg xmlns="http://www.w3.org/2000/svg" width="27.027" height="25" viewBox="0 0 7.151 6.615"><path d="M144.098 79.904a.46.46 0 0 1 .237-.33l.07-.037h2.808l.071.038a.46.46 0 0 1 .237.329l.01.06h-3.441zm.654-.545.087-.216.08-.2h1.782l.08.2.086.216c.005.014-.211.018-1.057.018-.847 0-1.064-.004-1.058-.018zm-2.372-.605a.241.241 0 0 1-.126-.137c-.019-.051-.02-.33-.018-2.58l.004-2.523.034-.049a.382.382 0 0 1 .083-.083l.05-.033h6.806l.057.037a.27.27 0 0 1 .086.099l.03.061v2.514c0 2.424-.001 2.515-.027 2.57a.307.307 0 0 1-.079.099l-.052.04-3.403.003c-3.063.003-3.407.002-3.445-.018zm3.534-.363a.189.189 0 0 0 .077-.125c.01-.078-.002-.11-.054-.162-.05-.05-.061-.055-.127-.055-.067 0-.079.005-.128.055-.047.047-.054.062-.054.12 0 .1.048.17.133.193.043.012.113 0 .153-.026zm2.885-2.584v-1.879h-5.979v3.758h5.979z" style="fill:#fff;fill-opacity:1;stroke-width:.0139695" transform="translate(-142.235 -73.349)"/></svg>