<svg xmlns="http://www.w3.org/2000/svg" width="50.007" height="50" viewBox="0 0 13.231 13.229"><path d="M62.685 113.45a2.175 2.175 0 0 1-.667-.29c-.378-.26-.67-.73-.74-1.193-.022-.142-.028-1.53-.022-5.208.008-4.733.01-5.023.054-5.17a1.884 1.884 0 0 1 1.277-1.272c.14-.043.47-.046 5.165-.053 3.678-.006 5.066 0 5.208.021a1.805 1.805 0 0 1 1.484 1.426c.036.178.04.732.04 5.164 0 4.433-.004 4.987-.04 5.164a1.798 1.798 0 0 1-1.412 1.412c-.178.037-.728.041-5.182.04-4.273-.003-5.01-.009-5.165-.04zm4.09-2.676c.056-.054.059-.073.059-.435v-.378l-.306.011c-.359.013-.535-.026-.745-.164-.161-.105-.238-.203-.36-.454-.131-.268-.25-.42-.424-.542-.208-.146-.228-.21-.076-.244.116-.026.315.032.455.131.068.048.2.19.292.314.143.192.194.24.333.31a.602.602 0 0 0 .363.085c.21 0 .464-.059.48-.11l.042-.158a.809.809 0 0 1 .118-.24c.048-.062.086-.117.086-.123a.474.474 0 0 0-.135-.028c-.74-.1-1.269-.43-1.513-.943-.129-.272-.187-.522-.205-.894a1.615 1.615 0 0 1 .029-.48c.05-.23.183-.519.297-.649l.082-.093-.043-.213a1.4 1.4 0 0 1 .035-.71l.047-.153.128-.008c.178-.012.5.098.787.267l.232.138.253-.056c.368-.08 1.197-.08 1.566 0l.254.056.134-.085c.31-.198.647-.325.86-.325h.135l.045.149c.064.21.079.61.029.78l-.04.136.09.118c.234.306.322.586.321 1.027 0 .631-.154 1.07-.492 1.409-.264.262-.602.417-1.108.505l-.259.046.062.081c.034.045.089.139.121.21.056.12.06.164.072.898l.013.772.06.049c.083.066.172.062.397-.019a4.264 4.264 0 0 0 1.28-.765 4.002 4.002 0 0 0 .164-5.887 4.203 4.203 0 0 0-2.104-1.117c-.225-.048-.342-.057-.818-.057-.476 0-.593.008-.819.057-.391.085-.709.196-1.055.369a3.946 3.946 0 0 0-1.073.774 4.014 4.014 0 0 0-1.115 2.068c-.084.393-.084 1.157 0 1.55.29 1.355 1.198 2.45 2.455 2.963.312.128.425.14.513.057z" style="fill:#fff;stroke-width:.0258473" transform="translate(-61.254 -100.261)"/></svg>