<svg xmlns="http://www.w3.org/2000/svg" width="50" height="49.994" viewBox="0 0 13.229 13.227"><path d="M88.585 50.917a1.686 1.686 0 0 1-1.25-1.27c-.037-.16-.042-.929-.035-5.381l.008-5.195.07-.195c.21-.586.685-.998 1.283-1.112.131-.025 1.58-.031 5.351-.025l5.172.01.217.078c.538.197.946.655 1.076 1.21.065.274.066 10.345.001 10.617a1.68 1.68 0 0 1-1.264 1.265c-.262.062-10.375.06-10.629-.002zm8.092-2.931c.052-.072.45-1.946 1.244-5.845l.28-1.38-.07-.07a.25.25 0 0 0-.147-.072c-.12 0-8.2 3.12-8.278 3.197a.362.362 0 0 0-.085.16c-.016.079-.006.102.066.154.048.033.51.217 1.029.408.518.19.967.369.996.395.029.027.081.14.116.25l.365 1.177c.166.536.326 1.016.355 1.067.065.111.21.139.326.062.042-.027.308-.24.592-.472.543-.444.663-.518.79-.486.043.01.526.345 1.075.742.548.398 1.03.741 1.072.764.105.056.21.037.274-.051zm-4.025-1.511c-.044-.054-.459-1.526-.459-1.627 0-.1.07-.225.16-.292.202-.147 3.902-2.403 3.942-2.403.149 0-.036.19-1.586 1.63-1.765 1.641-1.737 1.61-1.776 1.963-.04.355-.083.632-.11.699-.03.073-.123.09-.171.03z" style="fill:#fff;stroke-width:.0300665" transform="translate(-87.297 -37.737)"/></svg>