<svg xmlns="http://www.w3.org/2000/svg" width="42" height="36" viewBox="0 0 11.113 9.525"><path d="M38.217 92.676c-.32-.074-.408-.105-.475-.167-.045-.04-.841-.749-1.77-1.573a200.498 200.498 0 0 1-1.688-1.507c0-.008.376-.32.491-.408.036-.028.066-.024.163.018.436.19 1.013.075 1.337-.265l.128-.135 1.473 1.087 1.473 1.088.18.396.179.397-.304.35-.507.583c-.112.128-.222.232-.245.23a8.498 8.498 0 0 1-.435-.094zm-9.075-.583a2.67 2.67 0 0 1-.242-.305c0-.013.143-.203.317-.421l.316-.398.276-.078.275-.077 2.066-1.676a1338.46 1338.46 0 0 1 2.13-1.726l.065-.05-.078-.096c-.211-.26-.254-.336-.254-.45 0-.305.376-.491.626-.31l.079.057 1.566-1.26c.876-.705 1.62-1.284 1.688-1.314a.905.905 0 0 1 .628.005.882.882 0 0 1 .389.37c.109.223.08.555-.066.753-.04.054-.772.662-1.626 1.35-1.35 1.087-1.55 1.257-1.534 1.306.071.209.035.396-.098.506-.195.162-.428.104-.65-.16-.08-.094-.153-.169-.163-.165-.009.004-.969.78-2.132 1.726l-2.115 1.72-.134.253-.135.254-.46.232c-.253.127-.468.232-.477.233-.008 0-.124-.125-.257-.28zm1.582-4.159c-.502-.093-.95-.344-1.365-.763-.403-.408-.643-.817-.732-1.248-.049-.238-.04-.623.015-.678.032-.03.461.032.76.111l.174.047.248.434c.137.24.26.445.272.457.02.017 1.062.135 1.196.135.023 0 .466-.493.627-.698.03-.038.01-.131-.129-.598a6.733 6.733 0 0 0-.184-.572 6.863 6.863 0 0 0-.495-.172 6.075 6.075 0 0 1-.507-.178c-.047-.037-.305-.669-.313-.77-.007-.083 0-.091.128-.142.115-.047.194-.055.529-.054.356.001.415.008.624.076.849.276 1.53.854 1.793 1.52.118.302.158.518.159.855 0 .247-.008.308-.054.386-.219.37-.288.626-.243.898.013.08.03.168.04.193.01.035-.076.118-.346.335-.198.16-.375.301-.395.316-.026.02-.058.004-.118-.055l-.083-.081-.178.079c-.406.18-.985.249-1.423.167z" style="fill:#ae8370;fill-opacity:1;stroke-width:.0268885" transform="translate(-28.595 -83.245)"/></svg>