<svg xmlns="http://www.w3.org/2000/svg" width="11" height="11" viewBox="0 0 2.91 2.91"><path d="M64.512 133.52c-.143-.054-.374-.308-.395-.436-.022-.13.061-.258.265-.408.187-.139.321-.173.44-.113a.956.956 0 0 1 .156.124c.062.059.116.095.142.095.164 0 .623-.375.953-.779.1-.122.194-.301.194-.368 0-.026-.036-.08-.095-.142a.955.955 0 0 1-.124-.157c-.06-.118-.025-.252.113-.44.15-.203.28-.286.409-.264.139.023.403.274.442.42.054.202-.082.634-.314 1a4.191 4.191 0 0 1-1.112 1.127c-.403.267-.873.416-1.074.34z" style="fill:#2eb398;fill-opacity:1;stroke-width:.0176999" transform="translate(-64.113 -130.628)"/></svg>