<svg xmlns="http://www.w3.org/2000/svg" width="50" height="24.235" viewBox="0 0 13.229 6.412"><path d="M80.15 153.933c-.117-.05-2.91-2.807-2.972-2.932a.632.632 0 0 1 0-.475c.066-.134 2.856-2.882 2.977-2.933.292-.122.653.09.683.399.027.286.067.235-.985 1.29l-.96.964 5.549.007c5.384.006 5.553.008 5.648.055.203.1.315.354.255.578a.498.498 0 0 1-.255.333c-.095.048-.264.05-5.648.056l-5.55.007.961.964c1.052 1.054 1.012 1.003.985 1.29-.03.31-.399.523-.689.397z" style="fill:#fff;stroke-width:.0258775" transform="translate(-77.132 -147.558)"/></svg>