<svg xmlns="http://www.w3.org/2000/svg" width="14.547" height="25" viewBox="0 0 3.849 6.615"><path d="M-48.19 215.533a.373.373 0 0 1-.201-.115.447.447 0 0 1-.128-.25c-.017-.101-.017-5.748 0-5.85a.447.447 0 0 1 .128-.25.392.392 0 0 1 .219-.118c.096-.02 3.035-.02 3.132 0 .093.02.152.051.219.118a.445.445 0 0 1 .128.258c.008.05.011 1.166.01 2.975-.004 2.394-.008 2.903-.022 2.941a.522.522 0 0 1-.283.286c-.07.024-3.107.029-3.201.005zm1.638-.215a.223.223 0 0 0 .066-.4c-.037-.025-.064-.032-.12-.032-.25 0-.306.343-.07.427.062.022.065.022.124.005zm1.561-3.133v-2.54h-3.231v5.08h3.231zm-1.098-2.85a.048.048 0 0 0 0-.051c-.014-.025-.027-.026-.517-.026s-.504 0-.517.026a.048.048 0 0 0 0 .052c.013.025.027.026.517.026s.503-.001.517-.026z" style="fill:#fff;fill-opacity:1;stroke-width:.0129227" transform="translate(48.532 -208.934)"/></svg>