<svg xmlns="http://www.w3.org/2000/svg" width="32.512" height="25" viewBox="0 0 8.602 6.615"><path d="M29.878 64.826a.55.55 0 0 1-.21.288c-.167.105.12.098-4.07.098-3.464 0-3.836-.002-3.918-.027a.536.536 0 0 1-.363-.356c-.019-.063-.023-.568-.023-2.928 0-3.176-.008-2.948.117-3.107.048-.06.099-.1.18-.14l.114-.056h7.784l.113.055c.12.06.191.131.253.256l.037.076.003 2.882c.003 2.228-.001 2.9-.017 2.959zm-.457-3.362h-.092v.874h.185v-.874zm-3.824-2.32h-3.345v5.514h6.69v-5.514zm-3.76 2.905c-.055-.061-.156-.017-.156.07 0 .059.028.085.095.085.083 0 .12-.09.062-.155zm.002-.424c-.031-.031-.11-.035-.138-.006-.05.05-.001.164.07.164.079 0 .124-.103.068-.158z" style="fill:#fff;fill-opacity:1;stroke-width:.0168094" transform="translate(-21.294 -58.598)"/></svg>