<svg xmlns="http://www.w3.org/2000/svg" width="16.67" height="20" viewBox="0 0 4.411 5.292"><path d="M70.62 153.776a.781.781 0 0 1-.543-.531c-.021-.069-.023-.261-.023-2.095 0-2.205-.005-2.071.077-2.233a.842.842 0 0 1 .427-.374c.082-.031.086-.032 1.003-.035l.922-.004-.003.582c-.004.654-.004.656.096.858a.983.983 0 0 0 .5.472c.18.072.197.074.813.073h.576v1.32c0 1.454.003 1.389-.087 1.573a.895.895 0 0 1-.321.328c-.172.09-.085.086-1.81.085-1.218-.001-1.579-.005-1.627-.019zm2.782-.686a.246.246 0 0 0 .098-.18c0-.075-.042-.132-.273-.37l-.235-.24.054-.11c.078-.158.11-.295.11-.482 0-.413-.215-.767-.58-.957a1.084 1.084 0 0 0-1.55.71c-.035.135-.032.378.005.518.133.5.59.835 1.104.807a.962.962 0 0 0 .426-.11l.115-.055.237.237c.252.251.299.283.394.268a.31.31 0 0 0 .095-.036zm-1.485-.763a.642.642 0 0 1-.45-.77.638.638 0 0 1 .897-.412.64.64 0 0 1 .245.925.642.642 0 0 1-.692.257zm1.464-2.294c-.19-.032-.32-.12-.39-.265-.062-.127-.071-.22-.067-.647l.004-.382.655.654.654.655-.393-.002c-.216 0-.424-.007-.463-.014z" style="fill:#2d3141;fill-opacity:1;stroke-width:.0137804" transform="translate(-70.054 -148.504)"/></svg>