<svg xml:space="preserve" width="28" height="42" xmlns="http://www.w3.org/2000/svg"><defs><clipPath clipPathUnits="userSpaceOnUse" id="a"><path d="M0 54h36V0H0Z"/></clipPath></defs><g clip-path="url(#a)" style="fill:#fff" transform="matrix(.77778 0 0 -.77778 0 42)"><g style="fill:#fff"><path d="M0 0h-26c-1.654 0-3 1.346-3 3v7H3V3c0-1.654-1.346-3-3-3m-26 50H0c1.654 0 3-1.346 3-3v-2h-32v2c0 1.654 1.346 3 3 3m-3-7H3V12h-32zm29 9h-26c-2.757 0-5-2.243-5-5V3c0-2.757 2.243-5 5-5H0C2.757-2 5 .243 5 3v44c0 2.757-2.243 5-5 5" style="fill:#fff;fill-opacity:1;fill-rule:nonzero;stroke:none" transform="translate(31 2)"/></g><g style="fill:#fff"><path d="M0 0h-4a1 1 0 1 1 0-2h4a1 1 0 1 1 0 2" style="fill:#fff;fill-opacity:1;fill-rule:nonzero;stroke:none" transform="translate(20 8)"/></g></g></svg>