<svg width="16" height="29.997" viewBox="0 0 4.233 7.937" xmlns="http://www.w3.org/2000/svg"><path style="fill:#d4d4ce;fill-opacity:1;stroke-width:.0154191" d="m86.485 107.058-.052-.053v-3.352h-.53c-.563 0-.597-.004-.635-.077-.024-.045-.02-1.443.004-1.474.06-.077.06-.077.626-.077h.532l.007-.624c.006-.567.01-.637.04-.775.182-.825.748-1.344 1.571-1.437.2-.022 1.279-.022 1.343 0 .093.034.094.038.094.762 0 .715.002.703-.088.738-.026.01-.219.02-.502.023-.533.007-.58.015-.689.125-.107.108-.117.168-.117.72v.467l.63.004.63.004.045.05.045.052v.698c0 .757 0 .763-.084.802-.029.013-.21.018-.653.018h-.613v3.326l-.03.05a.178.178 0 0 1-.07.066 9.123 9.123 0 0 1-.746.015h-.706z" transform="translate(-85.252 -99.173)"/></svg>