<svg width="32" height="28" viewBox="0 0 8.467 7.408" xmlns="http://www.w3.org/2000/svg"><path style="fill:#fff;stroke-width:.0154738" d="M19.592 110.85c-.591-.043-1.1-.182-1.485-.407a1.605 1.605 0 0 1-.415-.377 1.02 1.02 0 0 1-.179-.715c.063-.41.333-.784.734-1.014.259-.15.468-.228.833-.315a6.87 6.87 0 0 1 1.083-.167c.153-.01.215-.033.215-.081a.568.568 0 0 0-.074-.149c-.164-.264-.194-.435-.114-.664.038-.108.041-.13.021-.14a1.698 1.698 0 0 0-.272-.013c-.25.001-.382-.011-.56-.052-.533-.122-1.004-.475-1.2-.9-.092-.197-.11-.292-.109-.583 0-.247.004-.28.046-.412.105-.333.326-.637.644-.886.304-.238.632-.376 1.072-.451.376-.065.447-.067 1.729-.067 1.442 0 1.356-.015 1 .168-.29.15-.373.172-.642.172a2.23 2.23 0 0 0-.247.009c-.058.013-.044.056.039.115.184.133.382.407.477.662.078.209.097.34.088.603-.01.281-.044.409-.176.644-.096.171-.214.296-.485.517-.208.17-.352.315-.41.416a.39.39 0 0 0-.046.175c-.014.206.073.313.517.635.503.365.738.598.861.853.196.405.181.852-.041 1.253-.24.435-.726.798-1.33.993-.422.137-1.086.212-1.574.177zm1.2-.435c.51-.073.88-.274 1.05-.57a.88.88 0 0 0-.068-.966c-.15-.2-.34-.358-.718-.59-.296-.184-.257-.173-.62-.172a3.5 3.5 0 0 0-1.216.2c-.514.19-.8.554-.773.985a.87.87 0 0 0 .236.573c.178.204.43.342.826.456.41.117.85.146 1.282.084zm-.12-3.89c.223-.047.357-.126.471-.28.122-.162.167-.286.193-.525.051-.475-.162-1.166-.47-1.528a1.244 1.244 0 0 0-.596-.384 1.285 1.285 0 0 0-.582 0c-.42.115-.686.505-.686 1.001 0 .46.184.928.51 1.31.169.196.416.346.667.404.12.028.362.028.494.001zm3.449-.249a.199.199 0 0 1-.075-.054c-.014-.021-.022-.17-.028-.493-.01-.508-.01-.509-.11-.55-.043-.018-.142-.022-.551-.022-.554 0-.57-.002-.62-.092-.034-.065-.037-.307-.003-.378.041-.085.05-.087.634-.095l.533-.007.055-.047.054-.047.008-.467c.009-.511.01-.518.108-.554.075-.028.354-.028.429 0 .098.036.1.043.108.554l.008.467.055.047.054.047.533.007c.585.008.593.01.634.095a.758.758 0 0 1 0 .375c-.041.086-.05.087-.634.095l-.533.007-.054.047-.055.048-.008.466c-.009.511-.01.519-.108.555-.08.029-.363.027-.434-.004z" transform="translate(-17.504 -103.45)"/></svg>