<svg width="32" height="32" viewBox="0 0 8.467 8.467" xmlns="http://www.w3.org/2000/svg"><path style="fill:#fff;stroke-width:.0288311" d="M-34.736 140.544a1.07 1.07 0 0 1-.433-.193c-.12-.086-.13-.088-.264-.058a4.023 4.023 0 0 1-2.405-.224 3.964 3.964 0 0 1-2.32-2.842 4.425 4.425 0 0 1 .036-1.708l.045-.181-.132-.116c-.248-.218-.387-.61-.356-1.009.08-1.046 1.086-2.025 2.153-2.094.443-.028.781.083 1.042.343l.145.145.163-.033a4.304 4.304 0 0 1 1.677.028 3.947 3.947 0 0 1 2.985 3.168c.08.46.058 1.174-.046 1.567-.027.1-.022.117.059.21.205.233.306.566.28.927-.064.915-.858 1.812-1.819 2.054-.259.065-.59.072-.81.016zm-.98-2.034c.111-.035.303-.116.426-.18.831-.43 1-1.357.36-1.994-.318-.317-.715-.459-1.419-.506-.57-.038-.739-.1-.836-.304-.09-.189-.02-.386.185-.526.142-.096.273-.128.592-.143.325-.016.579.033.782.151.147.086.202.168.228.34a.534.534 0 0 0 .08.21c.166.213.558.2.72-.021.143-.195.007-.664-.267-.92-.362-.34-1.01-.545-1.609-.51-.36.023-.592.083-.914.237-.304.146-.523.347-.643.591-.07.143-.078.19-.078.476 0 .378.06.548.26.732.289.266.635.37 1.458.434.521.041.797.164.924.412.075.147.064.387-.023.506-.074.1-.302.255-.437.296-.199.06-.505.066-.733.015-.376-.083-.579-.26-.614-.535-.026-.206-.085-.31-.213-.374-.255-.13-.567-.024-.633.215-.034.123.012.396.097.583.177.387.67.736 1.211.856.29.064.827.044 1.096-.041z" transform="translate(40.57 -132.115)"/></svg>