<svg width="31" height="26" viewBox="0 0 8.202 6.879" xmlns="http://www.w3.org/2000/svg"><path style="fill:#fff;stroke-width:.0163283" d="M2.943 104.458a4.8 4.8 0 0 1-1.545-.362 6.836 6.836 0 0 1-.664-.345l-.083-.054.293.006a3.2 3.2 0 0 0 1.154-.168 3.96 3.96 0 0 0 .636-.29c.136-.082.378-.255.378-.268a.374.374 0 0 0-.125-.022c-.453-.037-.918-.319-1.202-.73a2.076 2.076 0 0 1-.21-.408l-.01-.04h.279c.177 0 .313-.009.374-.023l.096-.023-.128-.038a1.728 1.728 0 0 1-1.21-1.52l-.01-.163.063.028c.248.11.469.172.617.173h.072l-.049-.037a1.745 1.745 0 0 1-.681-1.255 1.964 1.964 0 0 1 .046-.583c.033-.132.16-.432.178-.424.006.003.062.065.124.138a4.776 4.776 0 0 0 2.782 1.597c.19.033.554.074.565.063a2.479 2.479 0 0 1 .02-.815c.046-.172.076-.25.155-.402.512-.99 1.817-1.219 2.615-.459l.097.093.117-.027c.254-.058.606-.194.83-.321.063-.037.116-.058.116-.047 0 .047-.116.286-.201.416-.101.154-.335.396-.452.466a.26.26 0 0 0-.068.05c.01.009.331-.057.488-.1.088-.025.225-.07.304-.102a.852.852 0 0 1 .149-.051c.003.003-.043.072-.102.154a3.978 3.978 0 0 1-.58.614l-.15.122.01.12c.011.14-.015.554-.051.805-.175 1.228-.84 2.436-1.753 3.187-.706.58-1.487.908-2.431 1.022a8.423 8.423 0 0 1-.853.023z" transform="translate(-.65 -97.583)"/></svg>