<svg xmlns="http://www.w3.org/2000/svg" width="32" height="32" viewBox="0 0 8.467 8.467"><path d="M1.091 65.247a4.225 4.225 0 0 1-3.134-1.882 4.198 4.198 0 0 1-.63-3.112A4.202 4.202 0 0 1-.846 57.5c.898-.594 1.94-.816 3.029-.646 1.305.204 2.475 1.063 3.084 2.266a4.24 4.24 0 0 1 .001 3.82 4.25 4.25 0 0 1-1.871 1.871 4.255 4.255 0 0 1-2.306.436zm.91-.636c.356-.051.893-.213.893-.27a14.019 14.019 0 0 0-.612-2.296l-.152-.434-.104.04c-.509.191-1.295.632-1.68.943-.452.365-.811.774-1.002 1.14l-.077.148.047.04a3.9 3.9 0 0 0 .784.45c.566.242 1.265.33 1.903.239zm1.684-.706a3.684 3.684 0 0 0 1.374-2.302 8.404 8.404 0 0 0-.568-.132 4.995 4.995 0 0 0-.943-.077c-.307.001-.706.031-.73.054-.004.005.038.142.093.304.218.642.408 1.336.539 1.971.034.166.065.302.069.302.003 0 .078-.054.166-.12zM-1 63.132a5.25 5.25 0 0 1 1.165-1.218c.142-.105.454-.304.696-.446.292-.17.573-.303.82-.388l.2-.068-.078-.169c-.17-.363-.215-.443-.245-.434l-.144.041c-.67.194-1.567.352-2.35.415-.328.026-.807.05-1.003.05-.149 0-.177.004-.186.028a3.643 3.643 0 0 0 .819 2.38l.103.125.033-.055c.018-.03.095-.147.17-.261zm6.101-2.27c-.045-.675-.202-1.191-.524-1.717-.083-.135-.276-.397-.293-.397a.774.774 0 0 0-.112.12c-.108.131-.355.364-.542.51a5.988 5.988 0 0 1-1.232.727c-.068.03-.126.055-.128.057-.003.002.05.122.116.267.067.144.139.306.16.358.028.072.045.094.065.088.166-.05 1.224-.052 1.681-.003.247.027.69.091.702.102a.172.172 0 0 0 .06.007h.055zm-6.138-.618a13.442 13.442 0 0 0 2.313-.398 2.046 2.046 0 0 0-.151-.285c-.32-.55-.636-1.039-.99-1.536l-.192-.269-.14.074c-.54.288-.99.699-1.345 1.232a3.602 3.602 0 0 0-.505 1.198c-.009.03.002.031.35.02.198-.005.494-.022.66-.036zm3.226-.701a5.03 5.03 0 0 0 1.16-.68c.2-.163.53-.512.517-.547a3.616 3.616 0 0 0-.394-.308 3.423 3.423 0 0 0-1.481-.56 4.835 4.835 0 0 0-.933-.009c-.28.042-.415.074-.407.096.005.011.083.121.174.244.316.426.694 1.015.996 1.55.093.163.176.294.186.29l.182-.076z" style="fill:#e83a93;fill-opacity:1;stroke-width:.0165429" transform="translate(2.745 -56.798)"/></svg>