<svg xmlns="http://www.w3.org/2000/svg" width="27.027" height="25" viewBox="0 0 7.151 6.615"><path d="M1.863 6.555a.46.46 0 01.237-.33l.07-.037h2.808l.071.038a.46.46 0 01.237.329l.01.06H1.855zm.654-.545l.087-.216.08-.2h1.782l.08.2.086.216c.005.014-.211.018-1.057.018-.847 0-1.064-.004-1.058-.018zM.145 5.405a.241.241 0 01-.126-.137c-.019-.051-.02-.33-.018-2.58L.005.165.039.116A.382.382 0 01.122.033L.172 0h6.806l.057.037a.27.27 0 01.086.099l.03.061v2.514c0 2.424-.001 2.515-.027 2.57a.307.307 0 01-.079.099l-.052.04-3.403.003C.527 5.426.183 5.425.145 5.405zm3.534-.363a.189.189 0 00.077-.125c.01-.078-.002-.11-.054-.162-.05-.05-.061-.055-.127-.055-.067 0-.079.005-.128.055-.047.047-.054.062-.054.12 0 .1.048.17.133.193.043.012.113 0 .153-.026zm2.885-2.584V.579H.585v3.758h5.979z" fill="#fff"/></svg>