<svg xmlns="http://www.w3.org/2000/svg" width="20.003" height="20" viewBox="0 0 5.292 5.292"><path d="M.572 5.276a.87.87 0 01-.267-.117.742.742 0 01-.296-.476C0 4.626-.001 4.071 0 2.599.003.706.005.59.022.532a.754.754 0 01.51-.51C.589.006.722.004 2.599.002c1.471-.003 2.026 0 2.083.008a.722.722 0 01.594.57c.014.071.016.293.016 2.066S5.29 4.64 5.276 4.712a.72.72 0 01-.565.564c-.071.015-.291.017-2.073.016-1.71 0-2.004-.003-2.066-.016zm1.636-1.07c.023-.022.024-.03.024-.174V3.88l-.123.004c-.143.005-.214-.01-.298-.065-.064-.042-.095-.081-.144-.182a.51.51 0 00-.17-.217c-.083-.058-.09-.084-.03-.097.047-.01.126.012.182.052.027.02.08.076.117.126.057.076.078.095.133.124a.24.24 0 00.146.034c.084 0 .185-.024.191-.045l.017-.063a.322.322 0 01.048-.095.398.398 0 00.034-.05.228.228 0 00-.054-.01c-.296-.04-.508-.173-.605-.378a.87.87 0 01-.082-.358.645.645 0 01.13-.451l.033-.038-.017-.085a.56.56 0 01.014-.284l.018-.061.052-.003c.071-.005.2.039.314.107l.093.055.101-.023a2.06 2.06 0 01.627 0l.101.023.054-.034a.737.737 0 01.344-.13h.054l.018.06a.734.734 0 01.012.312l-.016.054.036.047a.604.604 0 01.128.41c0 .253-.062.43-.197.564-.105.105-.24.167-.443.203l-.103.018.024.032a.545.545 0 01.049.084c.022.048.024.066.028.36l.006.308.024.02c.033.026.069.025.159-.007.17-.062.37-.181.511-.307a1.6 1.6 0 00.066-2.354 1.681 1.681 0 00-.841-.447 1.294 1.294 0 00-.328-.023c-.19 0-.237.004-.327.023a1.71 1.71 0 00-.851.457c-.231.231-.376.5-.446.827a1.912 1.912 0 000 .62c.116.542.479.98.981 1.186.125.05.17.056.206.022z" fill="#2d3141"/></svg>