<svg xmlns="http://www.w3.org/2000/svg" width="19.992" height="20" viewBox="0 0 5.29 5.292"><path d="M.236 5.276a.34.34 0 01-.225-.233c-.015-.064-.015-4.73 0-4.794a.337.337 0 01.23-.233c.08-.021 4.728-.021 4.807 0a.337.337 0 01.23.233c.015.065.015 4.73 0 4.794a.337.337 0 01-.23.234c-.076.02-4.739.02-4.812 0zm3.68-1.302c.336-.05.562-.214.646-.465a.494.494 0 00.028-.186c0-.199-.057-.34-.186-.452-.115-.102-.168-.13-.437-.236-.152-.06-.194-.08-.235-.117-.048-.043-.05-.047-.05-.102 0-.069.023-.104.09-.142.04-.023.056-.026.164-.026a.81.81 0 01.346.07c.04.017.08.033.089.035.013.004.026-.035.074-.22.044-.168.055-.227.046-.232a1.968 1.968 0 00-.287-.087 1.902 1.902 0 00-.466-.015 1.133 1.133 0 00-.357.114.909.909 0 00-.256.258.611.611 0 00-.075.27c-.01.173.04.3.168.427.093.093.207.16.403.235.218.085.247.099.29.143.033.034.04.048.043.095.006.078-.019.118-.096.157-.058.03-.068.031-.18.03a.89.89 0 01-.216-.024 1.694 1.694 0 01-.303-.104c-.023-.012-.044-.02-.047-.016a9.307 9.307 0 00-.116.453c0 .014.124.067.222.095.051.014.137.032.191.04.13.02.383.021.506.003zm-2.398-.542c0-.284.004-.518.008-.52a.972.972 0 01.116.002c.51.027.942-.126 1.14-.405a1 1 0 00.083-.993c-.15-.296-.42-.448-.877-.493a5.823 5.823 0 00-1.097.049l-.024.004v2.871h.651zm.029-1.03l-.029-.005V1.97c0-.235.004-.43.01-.433a1.13 1.13 0 01.135-.018c.339-.032.562.07.624.285a.583.583 0 01-.004.29c-.055.16-.173.257-.367.3-.058.013-.3.018-.37.008z" fill="#2d3141"/></svg>