<svg xmlns="http://www.w3.org/2000/svg" width="32.512" height="25" viewBox="0 0 8.602 6.615"><path d="M8.584 6.228a.55.55 0 01-.21.288c-.167.105.12.098-4.07.098-3.464 0-3.836-.002-3.918-.027a.536.536 0 01-.363-.356C.004 6.168 0 5.663 0 3.303 0 .127-.008.355.117.196c.048-.06.099-.1.18-.14L.411 0h7.784l.113.055c.12.06.191.131.253.256l.037.076.003 2.882c.003 2.228-.001 2.9-.017 2.959zm-.457-3.362h-.092v.874h.185v-.874zM4.303.546H.958V6.06h6.69V.546zM.543 3.451c-.055-.061-.156-.017-.156.07 0 .059.028.085.095.085.083 0 .12-.09.062-.155zm.002-.424c-.031-.031-.11-.035-.138-.006-.05.05-.001.164.07.164.079 0 .124-.103.068-.158z" fill="#fff"/></svg>