<svg xmlns="http://www.w3.org/2000/svg" width="383.304" height="383.473" viewBox="0 0 101.416 101.46"><path d="M90.836 101.19a17.243 17.243 0 01-1.985-.822c-.509-.26-5.957-5.487-12.107-11.616C65.946 77.99 65.542 77.621 64.97 77.985c-10.905 6.933-24.743 8.469-36.973 4.104-11.235-4.01-20.602-13.066-25-24.168C-6.428 34.123 7.223 7.515 32.065 1.268c20.45-5.144 41.744 5.766 49.507 25.366 4.465 11.273 3.927 23.82-1.476 34.429-.705 1.382-1.548 2.962-1.874 3.51l-.592.997 11.152 11.174c12.68 12.704 12.634 12.645 12.634 16.333 0 3.415-1.774 6.209-4.832 7.608-1.722.789-4.228 1.009-5.748.505zM46.921 71.521c16.183-2.624 27.206-17.858 24.59-33.984-2.406-14.84-15.488-25.461-30.55-24.803-4.433.193-7.655 1.032-11.773 3.065-9.865 4.87-15.942 14.168-16.441 25.156-.85 18.698 15.759 33.553 34.174 30.566zm-6.44-8.507c-.484-.246-1.198-.866-1.588-1.377l-.71-.929-.078-7.098-.078-7.1h-6.76c-7.563 0-7.993-.082-9.304-1.802-.583-.764-.713-1.211-.713-2.457 0-1.644.44-2.497 1.821-3.529.689-.514 1.138-.55 7.843-.624l7.113-.078.078-7.113c.074-6.705.11-7.155.624-7.843 1.032-1.38 1.885-1.82 3.53-1.82 1.245 0 1.692.129 2.456.712 1.72 1.312 1.803 1.74 1.803 9.315v6.773h6.773c7.576 0 8.004.083 9.315 1.803.58.76.713 1.213.713 2.43 0 1.218-.133 1.671-.713 2.431-1.311 1.72-1.74 1.803-9.315 1.803h-6.773v6.773c0 7.552-.086 8.006-1.768 9.289-1.152.879-3.031 1.073-4.27.441z" fill="#fff"/></svg>