<svg xmlns="http://www.w3.org/2000/svg" width="12" height="12" viewBox="0 0 3.175 3.175"><path d="M52.435 69.47a1.585 1.585 0 0 1-1.411-1.873c.076-.42.323-.793.685-1.032a1.59 1.59 0 0 1 2.293 2.04 1.594 1.594 0 0 1-1.567.865zm.341-.239c.134-.019.335-.08.335-.1a5.259 5.259 0 0 0-.23-.862l-.056-.162-.04.014c-.19.072-.485.238-.629.354-.17.137-.304.29-.376.428l-.029.055.018.015c.064.052.192.125.294.169.212.09.474.124.713.09zm.632-.264a1.381 1.381 0 0 0 .515-.864 1.873 1.873 0 0 0-.567-.078c-.114 0-.264.012-.273.02a.944.944 0 0 0 .035.114c.081.24.153.502.202.74.012.062.024.113.026.113l.062-.045zm-1.757-.29a1.968 1.968 0 0 1 .698-.624 1.76 1.76 0 0 1 .307-.146l.076-.025-.03-.063c-.064-.137-.08-.167-.092-.163l-.054.015c-.25.073-.587.132-.88.156-.124.01-.303.018-.377.018-.056 0-.067.002-.07.01a1.366 1.366 0 0 0 .307.892l.04.048.011-.02.064-.098zm2.288-.852a1.325 1.325 0 0 0-.306-.792 1.648 1.648 0 0 1-.245.237 2.245 2.245 0 0 1-.51.293c-.002 0 .018.046.043.1l.06.135c.01.026.017.035.024.032a3.08 3.08 0 0 1 .916.04h.02zm-2.302-.231a5.04 5.04 0 0 0 .867-.15.762.762 0 0 0-.056-.106 7.208 7.208 0 0 0-.372-.576l-.071-.101-.053.028a1.38 1.38 0 0 0-.694.91c-.003.012.001.013.132.009.074-.003.185-.009.247-.014zm1.21-.263c.157-.066.318-.16.435-.255.075-.061.199-.192.194-.205a1.284 1.284 0 0 0-.703-.325 1.81 1.81 0 0 0-.35-.004c-.105.016-.156.028-.153.036.002.004.031.046.065.092.119.16.26.38.374.58.035.062.066.111.07.11l.068-.03z" style="fill:#03ac95;fill-opacity:1;stroke-width:.0062036" transform="translate(-50.997 -66.302)"/></svg>