<svg xmlns="http://www.w3.org/2000/svg" width="5.999" height="12" viewBox="0 0 1.587 3.175"><path d="M134.815 59.78c-.04-.018-.039.015-.039-.708v-.666l-.2-.003a2.031 2.031 0 0 1-.211-.01c-.029-.014-.03-.031-.033-.28-.003-.264 0-.313.02-.34.013-.017.015-.017.218-.02l.205-.002.003-.254c.003-.222.005-.262.018-.321.063-.285.224-.466.482-.54.068-.02.075-.021.336-.024.257-.003.267-.003.284.012l.018.016.002.259a5.2 5.2 0 0 1-.002.276c-.01.04-.027.044-.233.048-.221.005-.235.009-.267.071-.018.034-.018.037-.02.242l-.003.207.238.003c.236.002.238.002.254.02l.016.017v.291c0 .27 0 .292-.012.305-.012.013-.034.014-.254.016l-.24.002v1.342l-.018.023-.017.021-.265.002a3.11 3.11 0 0 1-.28-.005z" style="fill:#03ac95;fill-opacity:1;stroke-width:.00747375" transform="translate(-134.33 -56.61)"/></svg>