<svg xmlns="http://www.w3.org/2000/svg" width="13" height="12" viewBox="0 0 3.44 3.175"><path d="M93.923 81.074v-1.061l.355.002.355.002.002 1.06.002 1.06h-.714zm1.16.002.003-1.06.338-.001.338-.002v.142c0 .078.002.144.005.147.003.003.02-.016.038-.042a.73.73 0 0 1 .35-.247c.238-.08.581-.056.787.056a.678.678 0 0 1 .222.21c.075.123.118.286.134.507.005.063.009.39.01.728v.615h-.715v-.572c0-.572-.004-.68-.03-.771-.046-.165-.16-.246-.346-.246-.248 0-.38.125-.413.391-.005.042-.008.299-.008.638v.567h-.714Zm-.897-1.361c-.235-.053-.375-.287-.297-.497a.416.416 0 0 1 .467-.249c.2.04.331.187.331.373 0 .247-.246.43-.5.373z" style="fill:#03ac95;fill-opacity:1;stroke-width:.00806725" transform="translate(-93.868 -78.961)"/></svg>