<svg xmlns="http://www.w3.org/2000/svg" width="10" height="12" viewBox="0 0 2.646 3.175"><path d="M65.07 60.423a1.247 1.247 0 0 1-.038-.243c-.013-.14-.009-.357.01-.443.007-.033.066-.268.13-.523l.12-.463-.014-.029a.748.748 0 0 1-.048-.3.6.6 0 0 1 .06-.21.318.318 0 0 1 .08-.11.31.31 0 0 1 .237-.102c.169 0 .269.118.256.3a1.66 1.66 0 0 1-.093.364 6.349 6.349 0 0 0-.067.217c-.034.126-.013.214.072.292a.303.303 0 0 0 .158.078.53.53 0 0 0 .293-.042.677.677 0 0 0 .312-.313c.11-.216.146-.525.084-.744a.753.753 0 0 0-.396-.463 1.101 1.101 0 0 0-.879-.006.866.866 0 0 0-.419.404.772.772 0 0 0-.026.608c.02.049.06.118.09.157.017.023.025.04.025.054 0 .027-.055.234-.068.252-.012.02-.039.018-.084-.004-.147-.072-.276-.238-.345-.446a.768.768 0 0 1-.048-.29c0-.26.076-.478.236-.685a1.4 1.4 0 0 1 .213-.207c.31-.231.808-.326 1.238-.235.506.106.862.447.948.908.014.071.015.258.003.347-.041.301-.17.562-.37.744a.99.99 0 0 1-.536.261.746.746 0 0 1-.483-.07.546.546 0 0 1-.143-.122c-.01-.014-.014-.002-.076.22-.036.13-.074.259-.085.288a2.24 2.24 0 0 1-.23.428c-.092.14-.1.15-.118.128z" style="fill:#03ac95;fill-opacity:1;stroke-width:.00628935" transform="translate(-64.472 -57.257)"/></svg>