<svg width="30" height="30" viewBox="0 0 7.938 7.937" xmlns="http://www.w3.org/2000/svg"><path style="fill:#d4d4ce;fill-opacity:1;stroke-width:.0155263" d="M57.24 85.014a3 3 0 0 1-.495-.117 2.208 2.208 0 0 1-1.411-1.597l-.04-.163-.006-2.014c-.005-2.191-.006-2.155.082-2.459.229-.79.848-1.363 1.67-1.548l.161-.036h4.114l.16.036c.894.2 1.53.844 1.72 1.743.027.123.029.262.029 2.19v2.057l-.036.161c-.175.784-.715 1.396-1.446 1.639-.354.117-.165.109-2.422.111-1.114.002-2.05 0-2.08-.003zm3.897-.704a1.487 1.487 0 0 0 1.33-1.067l.043-.137v-4.115l-.043-.137a1.498 1.498 0 0 0-1.016-1.013c-.23-.067-.406-.072-2.348-.065-1.943.006-1.878.004-2.111.085a1.525 1.525 0 0 0-.958 1.046c-.026.092-.028.24-.028 2.15v2.05l.043.136c.082.26.213.475.398.651.26.248.559.385.902.415.213.018 3.573.019 3.788.001zm-2.148-1.228a2.074 2.074 0 0 1-1.743-1.645 2.609 2.609 0 0 1 0-.777 2.069 2.069 0 0 1 1.624-1.625c.184-.04.593-.04.776 0a2.077 2.077 0 0 1 1.625 1.625c.038.184.038.593 0 .777a2.068 2.068 0 0 1-1.617 1.623c-.148.03-.516.043-.665.022zm.577-.73a1.35 1.35 0 0 0 .996-.996c.042-.176.042-.44 0-.615a1.36 1.36 0 0 0-.456-.73 1.344 1.344 0 0 0-2.151.727c-.043.18-.043.44 0 .621.115.484.503.874.988.993.17.042.45.042.623 0zm1.668-2.94a.501.501 0 0 1-.31-.282.551.551 0 0 1-.01-.414.527.527 0 0 1 .712-.257.518.518 0 0 1-.004.922.614.614 0 0 1-.388.03z" transform="translate(-55.286 -77.08)"/></svg>