<svg width="30" height="30" viewBox="0 0 7.938 7.938" xmlns="http://www.w3.org/2000/svg"><path style="fill:#d4d4ce;fill-opacity:1;stroke-width:.0155149" d="M36.637 65.995a.138.138 0 0 1-.066-.047c-.031-.04-.032-.055-.032-2.647v-2.607l.038-.038.038-.038h1.701l.038.04.038.04.005 2.572c.003 1.849 0 2.59-.013 2.632-.03.105-.02.104-.918.102-.437-.002-.81-.006-.83-.01zm2.573-.012a.135.135 0 0 1-.066-.063c-.01-.026-.016-.95-.016-2.618 0-2.749-.002-2.646.07-2.674.015-.006.39-.01.836-.01h.81l.034.036c.03.033.033.053.033.217 0 .1.005.182.01.182a.662.662 0 0 0 .095-.078c.358-.328.793-.487 1.33-.485.404.001.709.062.997.199.192.09.311.178.46.337.313.332.484.82.534 1.525.01.124.016.894.016 1.789v1.57l-.037.044-.038.044h-1.69l-.04-.038-.04-.037v-1.36c0-1.365-.01-1.675-.056-1.886-.088-.397-.33-.562-.767-.521-.414.038-.616.27-.68.782-.01.076-.016.675-.016 1.524 0 1.004-.005 1.414-.018 1.45-.032.094-.034.094-.916.093-.65 0-.804-.004-.845-.022zm-1.996-5.846a1.054 1.054 0 0 1-.77-1.258.954.954 0 0 1 .28-.498.997.997 0 0 1 .746-.313c.769 0 1.269.793.947 1.501a1.192 1.192 0 0 1-.286.362 1.061 1.061 0 0 1-.917.206z" transform="translate(-36.416 -58.068)"/></svg>