<svg xmlns="http://www.w3.org/2000/svg" width="13" height="13" viewBox="0 0 3.44 3.44"><path d="M48.24 39.626a1.268 1.268 0 0 1-.603-.189.693.693 0 0 1-.169-.174.527.527 0 0 1-.072-.333.674.674 0 0 1 .298-.47c.105-.07.19-.106.338-.146.147-.04.303-.067.44-.078.062-.005.087-.015.087-.038a.28.28 0 0 0-.03-.069c-.066-.122-.078-.202-.046-.308.015-.05.017-.06.009-.065a.6.6 0 0 0-.11-.006.74.74 0 0 1-.716-.442.574.574 0 0 1-.044-.27c0-.115.002-.13.019-.192a.86.86 0 0 1 .261-.411.863.863 0 0 1 .435-.21c.153-.03.182-.031.703-.031.586 0 .55-.007.407.078-.119.07-.152.08-.262.08a.827.827 0 0 0-.1.004c-.023.006-.018.026.016.054a.727.727 0 0 1 .194.307c.031.097.04.158.035.28a.6.6 0 0 1-.071.299.784.784 0 0 1-.197.24.836.836 0 0 0-.167.193.202.202 0 0 0-.018.081c-.006.096.03.145.21.295.204.17.3.278.35.396a.698.698 0 0 1-.017.582.965.965 0 0 1-.54.46 1.698 1.698 0 0 1-.64.083zm.487-.201c.208-.034.358-.128.427-.265a.458.458 0 0 0-.028-.449c-.06-.093-.138-.166-.291-.274-.12-.085-.104-.08-.252-.08-.183 0-.347.032-.494.094-.209.088-.325.257-.314.457a.436.436 0 0 0 .096.266c.072.094.175.159.335.211.167.055.346.068.521.04zm-.048-1.807a.282.282 0 0 0 .191-.13.465.465 0 0 0 .079-.243 1.19 1.19 0 0 0-.192-.71.504.504 0 0 0-.241-.178.458.458 0 0 0-.237 0c-.17.053-.279.235-.278.465 0 .213.074.43.207.608.068.09.169.16.27.188a.53.53 0 0 0 .201 0zm1.4-.115a.082.082 0 0 1-.03-.025c-.005-.01-.009-.08-.01-.23-.005-.235-.005-.235-.046-.255-.017-.008-.057-.01-.223-.01-.226 0-.232 0-.252-.042a.37.37 0 0 1-.001-.176c.016-.04.02-.04.257-.044l.217-.003.022-.022.022-.022.003-.217c.004-.237.004-.24.044-.257a.401.401 0 0 1 .174 0c.04.017.04.02.044.257l.004.217.022.022.022.022.216.003c.238.004.241.005.258.044a.4.4 0 0 1 0 .174c-.017.04-.02.04-.258.044l-.216.004-.022.022-.022.022-.004.216c-.003.238-.004.241-.044.258a.375.375 0 0 1-.176-.002z" style="fill:#03ac95;fill-opacity:1;stroke-width:.00672024" transform="translate(-47.392 -36.19)"/></svg>