<svg xmlns="http://www.w3.org/2000/svg" width="12" height="10" viewBox="0 0 3.175 2.646"><path d="M63.946 70.187a1.868 1.868 0 0 1-.855-.272l-.033-.02.114.002c.167.003.3-.016.447-.065a1.186 1.186 0 0 0 .392-.215.144.144 0 0 0-.048-.008.658.658 0 0 1-.547-.438l-.004-.016h.108a.805.805 0 0 0 .145-.008l.037-.009-.05-.015a.665.665 0 0 1-.468-.584l-.004-.063.025.01a.666.666 0 0 0 .239.067h.027l-.018-.014a.67.67 0 0 1-.246-.707.625.625 0 0 1 .069-.163.715.715 0 0 1 .047.053 1.851 1.851 0 0 0 1.296.639.946.946 0 0 1 .008-.314.642.642 0 0 1 .06-.154.644.644 0 0 1 1.012-.177l.038.036.045-.01c.098-.023.235-.075.321-.124.025-.014.045-.022.045-.018a.666.666 0 0 1-.279.358 1.315 1.315 0 0 0 .307-.077.332.332 0 0 1 .057-.02.41.41 0 0 1-.04.06 1.534 1.534 0 0 1-.224.235l-.057.047.003.046a1.993 1.993 0 0 1-.698 1.535c-.273.224-.576.35-.941.394a3.28 3.28 0 0 1-.33.009z" style="fill:#03ac95;fill-opacity:1;stroke-width:.00630034" transform="translate(-63.058 -67.542)"/></svg>