<svg width="48" height="24" viewBox="0 0 12.7 6.35" xmlns="http://www.w3.org/2000/svg"><path style="fill:#e83a93;fill-opacity:1;stroke-width:.0407051" d="M-137.679 66.945c-1.477-.197-3.197-1.032-4.67-2.266-.532-.446-.75-.694-.75-.857 0-.156.224-.412.736-.841 1.42-1.19 2.91-1.943 4.426-2.235.642-.124 1.732-.124 2.396 0 1.492.28 3.17 1.149 4.552 2.358.791.692.79.75-.022 1.458-1.566 1.363-3.377 2.233-5.008 2.407a7.672 7.672 0 0 1-1.66-.024zm1.548-1.208c.97-.22 1.683-.975 1.76-1.865.088-1.003-.735-1.942-1.889-2.153a2.22 2.22 0 0 0-.961 0c-1.11.202-1.902 1.046-1.9 2.027.001.913.74 1.753 1.752 1.989.312.073.92.074 1.238.002zm-1.024-1.032c-.298-.091-.633-.402-.723-.672-.222-.663.325-1.31 1.106-1.31.695 0 1.205.426 1.204 1.005-.002.721-.806 1.216-1.587.977z" transform="translate(143.099 -60.653)"/></svg>